<svg width="17" height="18" viewBox="0 0 17 18" fill="none" xmlns="http://www.w3.org/2000/svg">
<g clip-path="url(#clip0_2139_2162)">
<path d="M8.69531 1.4668C8.96053 1.4668 9.21488 1.57215 9.40242 1.75969C9.58995 1.94723 9.69531 2.20158 9.69531 2.4668V8.4668H15.6953C15.9605 8.4668 16.2149 8.57215 16.4024 8.75969C16.5899 8.94723 16.6953 9.20158 16.6953 9.4668C16.6953 9.73201 16.5899 9.98637 16.4024 10.1739C16.2149 10.3614 15.9605 10.4668 15.6953 10.4668H9.69531V16.4668C9.69531 16.732 9.58995 16.9864 9.40242 17.1739C9.21488 17.3614 8.96053 17.4668 8.69531 17.4668C8.43009 17.4668 8.17574 17.3614 7.9882 17.1739C7.80067 16.9864 7.69531 16.732 7.69531 16.4668V10.4668H1.69531C1.4301 10.4668 1.17574 10.3614 0.988205 10.1739C0.800669 9.98637 0.695312 9.73201 0.695312 9.4668C0.695312 9.20158 0.800669 8.94723 0.988205 8.75969C1.17574 8.57215 1.4301 8.4668 1.69531 8.4668H7.69531V2.4668C7.69531 2.20158 7.80067 1.94723 7.9882 1.75969C8.17574 1.57215 8.43009 1.4668 8.69531 1.4668Z" fill="#1F4941"/>
</g>
<defs>
<clipPath id="clip0_2139_2162">
<rect width="16" height="17" fill="white" transform="translate(0.695312 0.912109)"/>
</clipPath>
</defs>
</svg>
