<svg width="24" height="24" viewBox="0 0 24 24" fill="none" xmlns="http://www.w3.org/2000/svg">
<path d="M12.4098 3.65361C13.1059 2.89552 14.0507 2.412 15.0728 2.29073C16.0948 2.16946 17.1265 2.41847 17.9808 2.99261L18.1608 3.12061L18.4838 3.36261C18.9246 3.69309 19.288 4.1157 19.5488 4.601C19.8096 5.0863 19.9614 5.62263 19.9938 6.17261L19.9998 6.39461V20.9996C19.9995 21.2545 19.9019 21.4996 19.7269 21.685C19.5519 21.8703 19.3128 21.9818 19.0584 21.9968C18.8039 22.0117 18.5534 21.9289 18.3579 21.7653C18.1625 21.6018 18.0369 21.3697 18.0068 21.1166L17.9998 20.9996V6.39461C17.9992 6.14521 17.9468 5.89864 17.8459 5.67055C17.7451 5.44246 17.5979 5.23782 17.4138 5.06961L17.2838 4.96261L16.9608 4.72061C16.592 4.44348 16.1483 4.28365 15.6875 4.2619C15.2267 4.24014 14.77 4.35746 14.3768 4.59861L14.2238 4.70061L14.9818 5.13861C15.8687 5.65056 16.5254 6.48317 16.8168 7.46491C17.1081 8.44665 17.0118 9.50274 16.5478 10.4156L16.4458 10.6026L15.9458 11.4686C15.8233 11.6808 15.6273 11.8406 15.3949 11.9178C15.1625 11.9951 14.9098 11.9843 14.6848 11.8876L14.5798 11.8346L5.91975 6.83461C5.70737 6.71218 5.54735 6.516 5.4701 6.28334C5.39286 6.05068 5.40377 5.79775 5.50075 5.57261L5.55375 5.46861L6.05375 4.60261C6.56587 3.71587 7.39855 3.05931 8.38028 2.76816C9.362 2.477 10.418 2.57344 11.3308 3.03761L11.5178 3.13761L12.4098 3.65361ZM6.74975 15.3966C6.97943 15.5292 7.14702 15.7476 7.21565 16.0038C7.28429 16.26 7.24836 16.5329 7.11575 16.7626L6.61575 17.6286C6.4822 17.8564 6.26397 18.0222 6.00867 18.0896C5.75338 18.1571 5.48175 18.1209 5.25306 17.9889C5.02437 17.8568 4.85719 17.6397 4.78801 17.3849C4.71882 17.13 4.75324 16.8582 4.88375 16.6286L5.38375 15.7626C5.51637 15.5329 5.73478 15.3653 5.99096 15.2967C6.24713 15.2281 6.52008 15.264 6.74975 15.3966ZM8.98175 15.5306C9.1085 15.308 9.31583 15.1425 9.56099 15.0683C9.80615 14.9941 10.0705 15.0167 10.2994 15.1317C10.5283 15.2466 10.7044 15.445 10.7914 15.6859C10.8783 15.9269 10.8695 16.192 10.7668 16.4266L10.7138 16.5306L10.2138 17.3966C10.0855 17.616 9.87852 17.7784 9.63486 17.8507C9.3912 17.923 9.12915 17.8998 8.90198 17.7858C8.67481 17.6719 8.49955 17.4757 8.41184 17.2371C8.32412 16.9986 8.33053 16.7356 8.42975 16.5016L8.48175 16.3966L8.98175 15.5306ZM5.15175 12.1646C5.38143 12.2972 5.54902 12.5156 5.61765 12.7718C5.68629 13.028 5.65036 13.3009 5.51775 13.5306L5.01775 14.3966C4.95257 14.5113 4.86536 14.6119 4.76113 14.6927C4.6569 14.7735 4.53772 14.8329 4.41045 14.8674C4.28317 14.902 4.15032 14.911 4.01954 14.894C3.88876 14.877 3.76264 14.8343 3.64843 14.7684C3.53422 14.7024 3.43418 14.6146 3.35407 14.5098C3.27396 14.405 3.21536 14.2855 3.18166 14.158C3.14795 14.0305 3.13979 13.8975 3.15766 13.7669C3.17552 13.6362 3.21906 13.5104 3.28575 13.3966L3.78575 12.5306C3.91837 12.3009 4.13678 12.1333 4.39296 12.0647C4.64913 11.9961 4.92208 12.032 5.15175 12.1646ZM8.74975 11.9326C8.97943 12.0652 9.14702 12.2836 9.21565 12.5398C9.28429 12.796 9.24836 13.0689 9.11575 13.2986L8.61575 14.1646C8.4822 14.3924 8.26397 14.5582 8.00867 14.6256C7.75338 14.6931 7.48175 14.6569 7.25306 14.5249C7.02437 14.3928 6.85719 14.1757 6.78801 13.9209C6.71882 13.666 6.75324 13.3942 6.88375 13.1646L7.38375 12.2986C7.51637 12.0689 7.73478 11.9013 7.99096 11.8327C8.24713 11.7641 8.52008 11.8 8.74975 11.9326ZM10.9818 12.0666C11.1085 11.844 11.3158 11.6785 11.561 11.6043C11.8062 11.5301 12.0705 11.5527 12.2994 11.6677C12.5283 11.7826 12.7044 11.981 12.7914 12.2219C12.8783 12.4629 12.8695 12.728 12.7668 12.9626L12.7138 13.0666L12.2138 13.9326C12.0859 14.153 11.8787 14.3162 11.6346 14.3891C11.3904 14.4619 11.1277 14.4387 10.9 14.3244C10.6723 14.21 10.4969 14.0131 10.4095 13.7738C10.3221 13.5344 10.3293 13.2708 10.4298 13.0366L10.4818 12.9326L10.9818 12.0666ZM7.15175 8.70061C7.38143 8.83322 7.54902 9.05164 7.61765 9.30781C7.68629 9.56398 7.65036 9.83693 7.51775 10.0666L7.01775 10.9326C6.95257 11.0473 6.86536 11.1479 6.76113 11.2287C6.6569 11.3095 6.53772 11.3689 6.41045 11.4034C6.28317 11.438 6.15032 11.447 6.01954 11.43C5.88876 11.413 5.76264 11.3703 5.64843 11.3044C5.53422 11.2384 5.43418 11.1506 5.35407 11.0458C5.27396 10.941 5.21536 10.8215 5.18166 10.694C5.14795 10.5665 5.13979 10.4335 5.15766 10.3029C5.17552 10.1722 5.21906 10.0464 5.28575 9.93261L5.78575 9.06661C5.91837 8.83694 6.13678 8.66935 6.39296 8.60071C6.64913 8.53207 6.92208 8.56801 7.15175 8.70061Z" fill="black"/>
</svg>
