<svg width="12" height="15" viewBox="0 0 12 15" fill="none" xmlns="http://www.w3.org/2000/svg">
<path d="M6 14.5827C5.825 14.5827 5.675 14.5355 5.55 14.441C5.425 14.3466 5.33125 14.2226 5.26875 14.0691C5.03125 13.408 4.73125 12.7882 4.36875 12.2098C4.01875 11.6313 3.525 10.9525 2.8875 10.1733C2.25 9.39414 1.73125 8.65039 1.33125 7.94206C0.94375 7.23372 0.75 6.37782 0.75 5.37435C0.75 3.9931 1.25625 2.82435 2.26875 1.8681C3.29375 0.900043 4.5375 0.416016 6 0.416016C7.4625 0.416016 8.7 0.900043 9.7125 1.8681C10.7375 2.82435 11.25 3.9931 11.25 5.37435C11.25 6.44865 11.0312 7.34588 10.5938 8.06602C10.1688 8.77435 9.675 9.47678 9.1125 10.1733C8.4375 11.0233 7.925 11.7316 7.575 12.2983C7.2375 12.8532 6.95625 13.4434 6.73125 14.0691C6.66875 14.2344 6.56875 14.3643 6.43125 14.4587C6.30625 14.5414 6.1625 14.5827 6 14.5827ZM6 7.14518C6.525 7.14518 6.96875 6.974 7.33125 6.63164C7.69375 6.28928 7.875 5.87018 7.875 5.37435C7.875 4.87852 7.69375 4.45942 7.33125 4.11706C6.96875 3.7747 6.525 3.60352 6 3.60352C5.475 3.60352 5.03125 3.7747 4.66875 4.11706C4.30625 4.45942 4.125 4.87852 4.125 5.37435C4.125 5.87018 4.30625 6.28928 4.66875 6.63164C5.03125 6.974 5.475 7.14518 6 7.14518Z" fill="#1D1B20"/>
</svg>
