<svg width="106" height="99" viewBox="0 0 106 99" fill="none" xmlns="http://www.w3.org/2000/svg">
<path d="M105.696 57.5338C105.343 56.5434 104.436 55.8907 103.387 55.869L92.9466 55.6598L88.9625 46.0009C88.5624 45.0288 87.6258 44.4247 86.5747 44.4507C85.5244 44.4811 84.6235 45.1416 84.2798 46.1346L83.6487 47.9513C78.7741 42.575 72.5281 38.84 65.6224 37.0937C71.7409 33.8344 75.9167 27.3861 75.9167 19.9788C75.9167 9.29561 67.2317 0.604492 56.5564 0.604492C45.8819 0.604492 37.1968 9.29561 37.1968 19.9788C37.1968 27.3913 41.3788 33.8439 47.5042 37.1006C41.8805 38.531 36.6491 41.2904 32.2381 45.2128C31.7138 45.1676 31.3492 45.1086 31.0585 45.0027C30.529 44.81 29.9119 44.3422 28.6837 43.4109C28.3712 43.1739 28.0231 42.91 27.6308 42.6158C25.4183 40.9588 22.4446 40.9588 20.2321 42.6158C19.8398 42.91 19.4917 43.1739 19.1801 43.4109C17.951 44.3422 17.3348 44.81 16.8053 45.0027C16.2758 45.1954 15.5033 45.2336 13.9635 45.3109C13.5721 45.33 13.1363 45.3517 12.6468 45.3794C9.88748 45.5331 7.60989 47.4452 6.97886 50.1386C6.86689 50.616 6.76968 51.0422 6.68288 51.4249C6.34002 52.9283 6.16816 53.6834 5.88607 54.1712C5.60484 54.6599 5.03718 55.1868 3.90793 56.2353C3.62063 56.5018 3.30035 56.7995 2.94274 57.1345C0.927279 59.0276 0.410828 61.9579 1.65812 64.4273C1.87946 64.8648 2.07823 65.2537 2.25703 65.6026C2.9601 66.9749 3.31337 67.6641 3.41145 68.2187C3.50953 68.7742 3.41318 69.5424 3.22136 71.0726C3.17275 71.4623 3.11807 71.8955 3.05991 72.3833C2.73182 75.1296 4.21867 77.7066 6.75926 78.7951C7.20974 78.9886 7.61249 79.1579 7.97357 79.3107C7.98746 79.3167 8.00135 79.3219 8.01523 79.328L2.37594 91.4494C2.11034 92.0214 2.18412 92.6932 2.5669 93.1941C2.95055 93.694 3.5807 93.9405 4.20045 93.8312L10.3675 92.7531L13.5122 98.1693C13.816 98.6919 14.3732 99.0113 14.9739 99.0113C14.9999 99.0113 15.0251 99.0104 15.0511 99.0096C15.6804 98.9809 16.242 98.6051 16.5076 98.0331L22.1903 85.8188C23.0105 85.574 23.5192 85.4516 23.9323 85.4516C24.4956 85.4516 25.2343 85.6799 26.7073 86.1348C26.8427 86.1764 26.985 86.2198 27.1317 86.2649L31.1913 95.6991C31.4412 96.278 31.9907 96.6712 32.6191 96.7172C32.6616 96.7207 32.7033 96.7224 32.7458 96.7224C33.3274 96.7224 33.8725 96.4221 34.1823 95.9221L37.4824 90.5988L43.6147 91.8556C44.2327 91.9824 44.869 91.7549 45.2665 91.2663C45.664 90.7767 45.7569 90.1075 45.5078 89.5277L40.9222 78.8732C40.983 78.8472 41.0429 78.822 41.1045 78.7951C43.646 77.7058 45.132 75.1287 44.8039 72.3824C44.7457 71.8955 44.6919 71.4623 44.6433 71.0735C44.6207 70.8921 44.599 70.7228 44.579 70.5622H76.7378L74.9967 77.7813C74.7502 78.8029 75.1512 79.8462 76.0183 80.439C76.4488 80.7342 76.941 80.8808 77.4331 80.8808C77.9322 80.8808 78.4304 80.7298 78.8644 80.4269L87.4331 74.456L96.3291 79.9269C97.224 80.4772 98.3394 80.4182 99.1709 79.7759C100.003 79.1345 100.344 78.0694 100.04 77.0634L97.0131 67.0617L104.961 60.2853C105.761 59.604 106.049 58.5233 105.696 57.5338ZM82.3659 51.6489L80.8538 56.0062L70.4432 56.8134C69.3982 56.8941 68.5319 57.5989 68.2359 58.6084C67.94 59.6178 68.2889 60.6794 69.1239 61.3121L76.8576 67.1771H58.0701L66.3611 57.8081C66.756 57.3611 66.8871 56.7405 66.7074 56.1728L61.4761 39.7132C69.6594 40.9171 77.0616 45.1121 82.3659 51.6489ZM44.921 57.1345C44.5634 56.7986 44.2431 56.5018 43.9558 56.2353C42.8257 55.1859 42.2589 54.6599 41.9768 54.1712C41.6956 53.6826 41.5237 52.9283 41.1809 51.4241C41.0932 51.0422 40.996 50.616 40.8849 50.1386C40.3945 48.0441 38.9059 46.4262 36.9712 45.7362C41.3094 42.5646 46.3315 40.5083 51.6349 39.7184L46.4062 56.1728C46.2256 56.7405 46.3567 57.3611 46.7516 57.8081L55.0435 67.1771H44.8212C45.0078 66.77 45.2656 66.2666 45.6067 65.6026C45.7855 65.2537 45.9843 64.8648 46.2057 64.4265C47.4521 61.9579 46.9356 59.0276 44.921 57.1345ZM56.5529 39.353C56.5538 39.353 56.5555 39.353 56.5572 39.353C56.5581 39.353 56.5598 39.353 56.5607 39.353C56.9825 39.353 57.4018 39.3643 57.821 39.3791L63.193 56.283L56.5564 63.7816L49.9206 56.283L55.2926 39.3791C55.7118 39.3634 56.1319 39.353 56.5529 39.353ZM40.5802 19.9788C40.5802 11.1618 47.7472 3.98963 56.5572 3.98963C65.3673 3.98963 72.5342 11.1618 72.5342 19.9788C72.5342 28.794 65.3681 35.9662 56.5598 35.9679C56.559 35.9679 56.5572 35.9679 56.5564 35.9679C56.5555 35.9679 56.5555 35.9679 56.5546 35.9679C47.7455 35.9662 40.5802 28.794 40.5802 19.9788ZM14.8081 93.6645L12.6989 90.032C12.343 89.4192 11.6425 89.0937 10.9455 89.2152L6.81047 89.9383L10.9603 81.018C11.2789 81.4146 11.6547 81.9979 12.225 82.8815C12.4376 83.2114 12.6746 83.5777 12.9428 83.9882C14.0963 85.7546 15.9963 86.764 18.0075 86.7883L14.8081 93.6645ZM37.0059 87.0461C36.3115 86.9046 35.6032 87.2093 35.23 87.8117L33.0158 91.3817L30.9873 86.6677C32.5627 86.35 33.9862 85.4178 34.9201 83.9882C35.1892 83.5777 35.4253 83.2105 35.6379 82.8807C36.4747 81.5856 36.8939 80.9347 37.3253 80.5727C37.4607 80.459 37.623 80.3514 37.8261 80.2394L41.1193 87.8889L37.0059 87.0461ZM41.2859 71.4945C41.3337 71.8781 41.3875 72.3052 41.4448 72.7843C41.5958 74.0455 40.9387 75.1834 39.7722 75.6834C39.3286 75.8734 38.9328 76.041 38.5769 76.1911C35.1085 77.6537 34.8385 77.8802 32.7962 81.0449C32.587 81.3695 32.3535 81.7306 32.0896 82.1351C31.3952 83.1984 30.161 83.6471 28.9458 83.2799C28.484 83.1402 28.0735 83.0135 27.7046 82.8998C24.1077 81.7887 23.7553 81.7887 20.1592 82.8998C19.7894 83.0135 19.3789 83.1402 18.9171 83.2799C17.7019 83.6471 16.4685 83.1984 15.7741 82.1351C15.5094 81.7306 15.2768 81.3695 15.0667 81.0449C13.0252 77.8802 12.7544 77.6537 9.28683 76.1911C8.93096 76.041 8.53429 75.8743 8.09075 75.6834C6.92418 75.1834 6.26798 74.0455 6.41814 72.7843C6.47543 72.3043 6.52925 71.8772 6.57698 71.4945C7.0457 67.7569 6.98407 67.4097 5.26633 64.0576C5.091 63.7139 4.89483 63.3311 4.67697 62.8997C4.1041 61.767 4.33238 60.4728 5.25765 59.6031C5.61005 59.2724 5.92513 58.9799 6.20809 58.7169C8.96741 56.1555 9.14361 55.8499 9.98035 52.1775C10.0663 51.8008 10.1618 51.3815 10.272 50.9111C10.5619 49.6742 11.5679 48.8297 12.8343 48.7594C13.3169 48.7325 13.7465 48.7108 14.1319 48.6917C17.8912 48.5042 18.2227 48.3835 21.2225 46.1094C21.5306 45.8759 21.8726 45.6155 22.2597 45.3265C22.7675 44.9463 23.349 44.7554 23.9314 44.7554C24.5139 44.7554 25.0963 44.9454 25.6041 45.3265C25.9903 45.6155 26.3332 45.8759 26.6413 46.1094C29.641 48.3835 29.9726 48.5042 33.731 48.6917C34.1172 48.7108 34.546 48.7325 35.0286 48.7594C36.2959 48.8297 37.3019 49.6742 37.5909 50.9111C37.7011 51.3815 37.7966 51.8008 37.8826 52.1775C38.7193 55.8499 38.8964 56.1555 41.6557 58.7169C41.9386 58.9799 42.2537 59.2724 42.6061 59.6031C43.5314 60.4728 43.7588 61.767 43.1868 62.8997C42.9689 63.3311 42.7728 63.7147 42.5966 64.0584C40.8788 67.4097 40.8181 67.7569 41.2859 71.4945ZM94.3831 64.8579C93.6245 65.5045 93.3207 66.5391 93.6097 67.4939L96.1329 75.8326L88.716 71.2714C87.8663 70.7489 86.79 70.7801 85.9715 71.3495L78.8271 76.3291L80.8694 67.8585C81.1029 66.8898 80.741 65.8743 79.9468 65.2719L73.0072 60.0102L81.688 59.3366C82.6818 59.2594 83.535 58.6006 83.8614 57.6588L86.7179 49.4286L90.0397 57.4817C90.4199 58.4035 91.3096 59.0129 92.3051 59.0328L101.01 59.2073L94.3831 64.8579ZM23.9314 48.8748C15.5528 48.8748 8.73653 55.6963 8.73653 64.081C8.73653 72.4657 15.5528 79.2872 23.9314 79.2872C32.3092 79.2872 39.1255 72.4657 39.1255 64.081C39.1255 55.6963 32.3092 48.8748 23.9314 48.8748ZM23.9314 75.9021C17.4181 75.9021 12.1199 70.5987 12.1199 64.081C12.1199 57.5625 17.4181 52.2599 23.9314 52.2599C30.4448 52.2599 35.743 57.5625 35.743 64.081C35.743 70.5987 30.4448 75.9021 23.9314 75.9021ZM30.1271 56.3534C29.1402 56.3568 28.2158 56.7448 27.5223 57.4461L22.1521 62.8736L20.3371 61.057C19.6393 60.3591 18.7123 59.9746 17.7254 59.9746C16.7385 59.9746 15.8106 60.3591 15.1127 61.057C14.4157 61.7548 14.0312 62.6836 14.0312 63.6713C14.0312 64.6582 14.4157 65.587 15.1127 66.2848L19.5507 70.7263C20.2486 71.4242 21.1765 71.8087 22.1625 71.8087C23.1494 71.8087 24.0773 71.4242 24.7751 70.7263C26.4625 69.0372 28.1637 67.3099 29.8086 65.6399C30.7929 64.6417 31.7763 63.6436 32.7614 62.6471C34.1928 61.2028 34.1841 58.861 32.7441 57.4279C32.048 56.7344 31.1236 56.3525 30.1419 56.3525C30.1367 56.3534 30.1315 56.3534 30.1271 56.3534ZM30.3589 60.2654C29.3711 61.2627 28.3859 62.2626 27.4008 63.2634C25.7594 64.929 24.0616 66.652 22.383 68.3324C22.3075 68.4079 22.2215 68.4235 22.1625 68.4235C22.1043 68.4235 22.0175 68.4079 21.9429 68.3324L17.5049 63.8909C17.4303 63.8154 17.4138 63.7295 17.4138 63.6705C17.4138 63.6114 17.4294 63.5255 17.5049 63.45C17.5804 63.3753 17.6663 63.3589 17.7254 63.3589C17.7835 63.3589 17.8703 63.3753 17.9458 63.45L20.9629 66.4697C21.2798 66.7874 21.7103 66.9653 22.1582 66.9653C22.1599 66.9653 22.1616 66.9653 22.1625 66.9653C22.613 66.9645 23.0435 66.7839 23.3603 66.4636L29.9266 59.827C29.9987 59.7541 30.0829 59.7385 30.1401 59.7385C30.1983 59.7333 30.2851 59.7532 30.3597 59.8279C30.4795 59.9477 30.4795 60.1438 30.3589 60.2654Z" fill="black"/>
</svg>
