<svg width="131" height="133" viewBox="0 0 131 133" fill="none" xmlns="http://www.w3.org/2000/svg">
<path fill-rule="evenodd" clip-rule="evenodd" d="M98.6742 43.6439H109.59C110.631 43.6439 111.475 44.4849 111.475 45.5268C111.475 46.5665 110.631 47.4108 109.59 47.4108H98.6742C97.6356 47.4108 96.7891 46.5665 96.7891 45.5268C96.7891 44.4849 97.6356 43.6439 98.6742 43.6439ZM87.7522 23.713C87.0159 22.9789 87.0159 21.7836 87.7522 21.0495L95.4698 13.3341C96.205 12.5967 97.3981 12.5967 98.1344 13.3341C98.8697 14.0694 98.8697 15.2602 98.1344 15.9987L90.4169 23.7141C89.6795 24.4515 88.4843 24.4494 87.7522 23.713ZM20.3891 45.5268C20.3891 44.486 21.2345 43.6439 22.2731 43.6439H33.1886C34.2295 43.6439 35.0727 44.4849 35.0727 45.5268C35.0727 46.5665 34.2295 47.4108 33.1886 47.4108H22.2731C21.2345 47.4108 20.3891 46.5665 20.3891 45.5268ZM33.7285 15.9987C32.9932 15.2602 32.9932 14.0694 33.7285 13.3341C34.4648 12.5967 35.6579 12.5967 36.3931 13.3341L44.1106 21.0495C45.3048 22.2404 44.441 24.2658 42.7772 24.2658C42.2968 24.2658 41.8142 24.0823 41.4449 23.713L33.7285 15.9987ZM64.0469 12.7921V1.88306C64.0469 0.84333 64.889 -0.000976562 65.9309 -0.000976562C66.9728 -0.000976562 67.816 0.84333 67.816 1.88306V12.7921C67.816 13.8351 66.9728 14.6772 65.9309 14.6772C64.8901 14.6772 64.0469 13.8351 64.0469 12.7921ZM65.932 23.4442C74.7799 23.4442 81.9771 29.9384 81.9771 37.9259C81.9771 41.2653 80.6847 44.526 78.3364 47.1075C74.9743 50.8021 74.0425 53.3847 72.3431 57.7282C72.0969 57.6937 71.8465 57.6688 71.5906 57.6688H60.2723C60.0154 57.6688 59.7649 57.6937 59.5198 57.7282C57.8215 53.3869 56.8875 50.7999 53.5265 47.1075C51.1782 44.526 49.8858 41.2653 49.8858 37.9259C49.8858 29.9384 57.083 23.4442 65.932 23.4442ZM67.8732 71.5319H63.9907C62.3259 71.5319 60.9881 70.2007 60.9881 68.4743H70.8747C70.8747 70.2007 69.537 71.5319 67.8732 71.5319ZM73.2263 63.0715C73.2263 63.9698 72.4932 64.7062 71.5906 64.7062H60.2723C59.3697 64.7062 58.6366 63.9698 58.6366 63.0715C58.6366 62.17 59.3697 61.4369 60.2723 61.4369H71.5906C72.4932 61.4369 73.2263 62.17 73.2263 63.0715ZM54.969 56.4499L56.1847 59.5486C54.0717 61.9865 54.5641 65.7006 57.2179 67.5241V68.5282C57.2179 72.2617 60.255 75.301 63.9907 75.301H67.8732C71.6078 75.301 74.645 72.2617 74.645 68.5282V67.5241C77.3031 65.6984 77.7901 61.9897 75.6793 59.5453C77.2556 55.5257 78.033 53.0414 81.1263 49.6436C84.1062 46.3668 85.7473 42.2068 85.7473 37.9259C85.7473 27.8611 76.8583 19.675 65.9309 19.675C55.0046 19.675 46.1178 27.8611 46.1178 37.9259C46.1178 42.2068 47.7556 46.3668 50.7366 49.6436C52.6369 51.7295 53.9411 53.8284 54.969 56.4499ZM126.236 125.922C125.598 126.395 125.141 126.688 124.246 126.532C123.605 126.42 123.135 126.117 122.776 125.577C119.323 120.433 114.741 116.417 108.763 113.297C107.514 112.646 106.013 113.55 106.006 114.958L105.934 128.525C105.934 128.889 105.624 129.203 105.256 129.203H88.8211C88.4529 129.203 88.1431 128.889 88.1431 128.525V106.9C88.1431 106.107 87.6432 105.397 86.8907 105.127C78.7369 102.217 72.6033 97.2271 68.1432 89.8702C67.5223 88.8467 67.8139 87.5262 68.8039 86.8611C69.4809 86.4066 69.943 86.1464 70.8175 86.3364C71.4534 86.4746 71.9091 86.7996 72.2481 87.3535C80.3748 100.67 94.7291 104.806 107.395 108.455C115.659 111.013 121.996 115.735 126.77 122.888C127.431 123.881 127.198 125.212 126.236 125.922ZM63.7219 89.8702C59.2596 97.226 53.1259 102.217 44.9722 105.127C44.2219 105.397 43.7198 106.107 43.7198 106.9V128.524C43.7198 128.889 43.4099 129.203 43.0418 129.203H26.6091C26.2409 129.203 25.93 128.889 25.93 128.513L25.8566 114.958C25.849 113.538 24.3385 112.651 23.1002 113.297C17.1231 116.417 12.5398 120.433 9.08811 125.577C8.37444 126.643 6.94279 126.893 5.90954 126.131L5.62667 125.922C4.66684 125.212 4.43147 123.881 5.09547 122.888C9.86656 115.734 16.2043 111.013 24.467 108.455C37.1349 104.808 51.4892 100.67 59.6159 87.3535C60.2842 86.2587 61.7007 85.9466 62.7685 86.6657L63.0579 86.8611C64.049 87.5262 64.3405 88.8467 63.7219 89.8702ZM129.905 120.795C124.703 112.997 117.498 107.633 108.492 104.85C108.48 104.847 108.47 104.843 108.456 104.84C95.8595 101.212 82.8322 97.4625 75.4666 85.3917C73.6743 82.4604 69.8447 81.6236 66.9911 83.5368L65.9309 84.3552C64.3956 82.9084 62.3626 82.1905 60.2389 82.6547C58.5988 83.0121 57.2719 83.96 56.3952 85.3917C49.0297 97.4614 36.0023 101.212 23.4057 104.84C23.3927 104.843 23.3819 104.849 23.3701 104.85C14.3634 107.633 7.15981 112.997 1.95685 120.795C0.175384 123.465 0.804836 127.052 3.38958 128.954C4.89897 130.069 6.34249 130.58 8.26216 130.246C9.91622 129.957 11.2842 129.07 12.2181 127.676C14.7661 123.881 18.016 120.76 22.1036 118.203L22.1598 128.525C22.1598 130.976 24.155 132.97 26.608 132.97H43.0407C45.4948 132.97 47.49 130.976 47.49 128.525V108.21C55.187 105.194 61.3779 100.223 65.9309 93.4072C70.485 100.223 76.6748 105.194 84.3718 108.21V128.525C84.3718 130.976 86.367 132.97 88.8211 132.97H105.255C107.707 132.97 109.702 130.976 109.702 128.534L109.758 118.203C113.847 120.76 117.096 123.881 119.644 127.675C121.553 130.522 125.431 131.203 128.189 129.164L128.473 128.953C131.058 127.052 131.689 123.465 129.905 120.795ZM102.708 94.3573C106.735 94.3573 110.013 91.0816 110.013 87.0555C110.013 83.0272 106.736 79.7515 102.708 79.7515C98.6786 79.7515 95.4017 83.0272 95.4017 87.0555C95.4017 91.0816 98.6786 94.3573 102.708 94.3573ZM102.708 75.9845C96.6002 75.9845 91.6337 80.9499 91.6337 87.0555C91.6337 93.16 96.6002 98.1265 102.708 98.1265C108.815 98.1265 113.783 93.16 113.783 87.0555C113.783 80.9499 108.815 75.9845 102.708 75.9845ZM29.1561 79.7515C25.1267 79.7515 21.8499 83.0272 21.8499 87.0555C21.8499 91.0816 25.1267 94.3573 29.1561 94.3573C33.1843 94.3573 36.4611 91.0816 36.4611 87.0555C36.4611 83.0272 33.1843 79.7515 29.1561 79.7515ZM29.1561 98.1265C35.2627 98.1265 40.2314 93.16 40.2314 87.0555C40.2314 80.9499 35.2627 75.9845 29.1561 75.9845C23.0483 75.9845 18.0807 80.9499 18.0807 87.0555C18.0807 93.16 23.0483 98.1265 29.1561 98.1265Z" fill="black"/>
</svg>
