<svg width="105" height="99" viewBox="0 0 105 99" fill="none" xmlns="http://www.w3.org/2000/svg">
<path d="M78.481 75.8781C77.7526 75.8781 77.1461 75.2711 77.1201 74.4988C77.0916 73.7083 77.6807 73.045 78.4317 73.0178C78.4888 73.0151 84.2532 72.7488 89.1516 69.6405C89.7953 69.2307 90.6336 69.4488 91.0238 70.1248C91.4148 70.8008 91.2063 71.6803 90.5627 72.091C85.0414 75.5946 78.7942 75.8681 78.5312 75.8781C78.5147 75.8781 78.4983 75.8781 78.481 75.8781Z" fill="black"/>
<path d="M19.1677 74.2773C18.8199 74.2773 18.4695 74.1383 18.2048 73.8575L14.7884 70.2722C14.2554 69.7125 14.2554 68.8057 14.7884 68.2469C15.3213 67.6872 16.1847 67.6872 16.7176 68.2469L20.1341 71.8323C20.667 72.392 20.667 73.2987 20.1341 73.8575C19.8667 74.1383 19.5164 74.2773 19.1677 74.2773Z" fill="black"/>
<mask id="mask0_2251_1404" style="mask-type:luminance" maskUnits="userSpaceOnUse" x="37" y="83" width="28" height="16">
<path d="M37.3418 83.6787H64.3618V99.0004H37.3418V83.6787Z" fill="white"/>
</mask>
<g mask="url(#mask0_2251_1404)">
<path d="M44.9689 99.0161C43.2412 99.0161 41.5127 98.3247 40.1968 96.9436L37.9544 94.5903C37.4215 94.0306 37.4215 93.1239 37.9544 92.5651C38.4873 92.0054 39.3516 92.0054 39.8836 92.5651L42.1261 94.9183C43.6929 96.5656 46.245 96.5629 47.8152 94.9183C48.5748 94.1233 48.9936 93.0648 48.9936 91.9336C48.9936 91.3848 48.8941 90.8505 48.6977 90.3435C48.4987 89.8211 48.2011 89.3523 47.8152 88.947C47.2823 88.3873 47.2823 87.4805 47.8152 86.9217C48.3473 86.362 49.2116 86.362 49.7445 86.9217L54.7372 92.1598C55.4977 92.9576 56.5082 93.3973 57.5809 93.3973C58.6528 93.3973 59.6642 92.9576 60.4238 92.1598C61.1842 91.3621 61.603 90.3008 61.603 89.1733C61.603 88.0448 61.1842 86.9835 60.4264 86.1885C59.8935 85.6297 59.8935 84.722 60.4264 84.1632C60.9593 83.6044 61.8227 83.6044 62.3556 84.1632C63.6291 85.4998 64.3299 87.2797 64.3299 89.1733C64.3299 91.0668 63.6274 92.8458 62.353 94.1851C61.077 95.5217 59.3848 96.2603 57.5809 96.2603C55.7763 96.2603 54.084 95.5217 52.808 94.1851L51.6504 92.9703C51.4419 94.4731 50.7835 95.8578 49.7419 96.9454C48.426 98.3274 46.6975 99.0161 44.9689 99.0161Z" fill="black"/>
</g>
<path d="M67.3911 90.5612C65.6626 90.5612 63.9349 89.8706 62.6181 88.4896L50.3548 75.6174C49.8218 75.0577 49.8218 74.1509 50.3548 73.5921C50.8877 73.0325 51.752 73.0325 52.284 73.5921L64.5474 86.4643C66.115 88.1116 68.6672 88.1116 70.2365 86.4643C71.8059 84.8188 71.8059 82.1403 70.2365 80.4921L57.9732 67.6208C57.4403 67.0611 57.4403 66.1543 57.9732 65.5956C58.5061 65.0359 59.3704 65.0359 59.9025 65.5956L72.1658 78.4677C74.7984 81.2308 74.7984 85.7256 72.1658 88.4868C70.8473 89.8706 69.1196 90.5612 67.3911 90.5612Z" fill="black"/>
<path d="M73.1679 80.6368C71.4393 80.6368 69.7116 79.9463 68.3975 78.567C67.8646 78.0082 67.8646 77.1005 68.3975 76.5418C68.9304 75.983 69.7938 75.983 70.3268 76.5418C71.8961 78.1863 74.4466 78.1863 76.0133 76.5418C76.6146 75.9085 77.0056 75.1053 77.138 74.2257C77.1406 74.2157 77.1406 74.2085 77.1423 74.1985C77.1761 74.0022 77.1925 73.786 77.1925 73.5552C77.1925 72.4294 76.7738 71.3682 76.0133 70.5677L56.5416 50.1287C55.1375 48.6532 53.0776 48.0889 51.1648 48.6532C50.182 48.9439 49.2995 49.5127 48.6126 50.2977L42.5428 57.2158C42.5307 57.2313 42.5169 57.2431 42.5047 57.2585C41.1127 58.7196 39.2613 59.5246 37.294 59.5246C35.3267 59.5246 33.4727 58.7196 32.0807 57.2585C29.7725 54.8353 29.2491 51.1773 30.7812 48.1607C32.7321 44.3119 36.1053 39.0284 41.1058 35.7238C41.1248 35.7111 41.1413 35.7011 41.1603 35.6892C45.2723 32.988 49.7771 32.0785 54.5501 32.988C55.2751 33.0997 65.1679 34.6952 72.9403 40.2786L80.9048 36.6633C81.5961 36.3498 82.398 36.6833 82.6965 37.4083C82.995 38.1343 82.6775 38.9766 81.9862 39.29L73.3219 43.2234C72.8815 43.4251 72.3702 43.3651 71.9818 43.0689C64.5433 37.4238 54.2421 35.8328 54.1383 35.8183C54.1192 35.8155 54.1028 35.8128 54.0864 35.8083C49.9761 35.0205 46.1011 35.8055 42.5636 38.1443C42.5471 38.1543 42.5307 38.1661 42.5143 38.1761C38.0467 41.1508 34.9806 45.9764 33.1915 49.5054C32.2278 51.4062 32.5565 53.7077 34.0099 55.2332C34.8863 56.1528 36.0534 56.6598 37.294 56.6598C38.5251 56.6598 39.6853 56.16 40.5582 55.2505L46.6072 48.357C47.635 47.1821 48.9561 46.3317 50.426 45.8974C53.2887 45.0497 56.3712 45.8974 58.4709 48.1035L77.9426 68.5424C79.2187 69.8844 79.9194 71.6635 79.9194 73.5552C79.9194 73.9477 79.8891 74.3275 79.8295 74.6855C79.6045 76.1592 78.9539 77.5012 77.9426 78.5643C76.6267 79.9463 74.8964 80.6368 73.1679 80.6368Z" fill="black"/>
<path d="M23.5308 40.1143C22.9079 40.1143 22.3473 39.6646 22.2029 39.0004C22.0342 38.2299 22.4935 37.4621 23.2298 37.2858C31.7765 35.2406 41.4193 35.4868 41.8666 35.5023C42.6054 35.5195 43.1998 36.1528 43.1998 36.9333C43.1998 37.7356 42.5648 38.3898 41.7983 38.3644C41.4029 38.3544 32.0698 38.1081 23.8362 40.0789C23.7342 40.1016 23.6329 40.1143 23.5308 40.1143Z" fill="black"/>
<path d="M22.224 79.7619C20.9765 79.7619 19.729 79.2631 18.7799 78.2663C17.8585 77.2996 17.3516 76.0148 17.3516 74.651C17.3516 73.2863 17.8585 71.9988 18.7799 71.0348L22.93 66.6789C23.8505 65.7122 25.0721 65.1807 26.3741 65.1807C27.6761 65.1807 28.9003 65.7122 29.8191 66.6789C31.7172 68.6715 31.7172 71.917 29.8191 73.9105C29.2862 74.4693 28.4219 74.4693 27.8898 73.9105C27.3569 73.3508 27.3569 72.444 27.8898 71.8852C28.7256 71.0075 28.7256 69.5792 27.8898 68.7015C27.4849 68.2772 26.9451 68.0428 26.3715 68.0428C25.7988 68.0428 25.2615 68.2772 24.8541 68.7015L20.704 73.0582C20.2991 73.4825 20.0768 74.0468 20.0768 74.6483C20.0768 75.2498 20.2991 75.8158 20.704 76.2411C21.5397 77.1179 22.9014 77.1179 23.7372 76.2411C24.2692 75.6823 25.1335 75.6823 25.6664 76.2411C26.1993 76.7999 26.1993 77.7075 25.6664 78.2663C24.7191 79.2631 23.4716 79.7619 22.224 79.7619Z" fill="black"/>
<path d="M25.7075 86.5189C24.46 86.5189 23.2125 86.0192 22.2634 85.0225C21.342 84.0557 20.8359 82.7737 20.8359 81.4071C20.8359 80.0406 21.342 78.7558 22.2634 77.7918L27.8903 71.885C28.8117 70.9183 30.0332 70.3867 31.3353 70.3867C32.6373 70.3867 33.8615 70.9183 34.7794 71.885C36.6784 73.8776 36.6784 77.1231 34.7794 79.1156C34.2473 79.6753 33.3831 79.6753 32.8501 79.1156C32.3181 78.5569 32.3181 77.6501 32.8501 77.0904C33.6859 76.2136 33.6859 74.7843 32.8501 73.9075C32.4452 73.4823 31.9054 73.2488 31.3327 73.2488C30.76 73.2488 30.2227 73.4823 29.8152 73.9075L24.1875 79.8144C23.7826 80.2396 23.5603 80.8056 23.5603 81.4071C23.5603 82.0086 23.7826 82.5729 24.1875 82.9999C25.0232 83.8767 26.3849 83.8767 27.2207 82.9999C27.7536 82.4411 28.617 82.4411 29.1499 82.9999C29.6829 83.5587 29.6829 84.4664 29.1499 85.0252C28.2035 86.0219 26.9533 86.5189 25.7075 86.5189Z" fill="black"/>
<path d="M29.0324 93.4415C27.7849 93.4415 26.5374 92.9427 25.5883 91.9459C23.6893 89.9525 23.6893 86.7079 25.5883 84.7144L32.8511 77.0931C34.7501 75.1005 37.8421 75.1005 39.7402 77.0931C40.6616 78.0598 41.1686 79.3418 41.1686 80.7084C41.1686 82.0758 40.6616 83.3606 39.7402 84.3246L32.48 91.9459C31.5283 92.9427 30.2799 93.4415 29.0324 93.4415ZM36.2961 78.4578C35.7468 78.4578 35.1974 78.6758 34.7787 79.1156L27.515 86.7369C26.6792 87.6146 26.6792 89.043 27.515 89.9207C28.3507 90.7975 29.7124 90.7975 30.5481 89.9207L37.8084 82.2993C38.2133 81.8741 38.4365 81.3081 38.4365 80.7066C38.4365 80.1051 38.2133 79.5381 37.8084 79.1138C37.3949 78.6758 36.8455 78.4578 36.2961 78.4578Z" fill="black"/>
<path d="M36.1047 96.4388C34.8571 96.4388 33.6096 95.9391 32.6606 94.9424C30.759 92.9471 30.759 89.7016 32.6606 87.709C33.1926 87.1493 34.0569 87.1493 34.5898 87.709C35.1227 88.2678 35.1227 89.1746 34.5898 89.7343C33.7541 90.6111 33.7541 92.0403 34.5924 92.9198C35.4281 93.7966 36.789 93.7966 37.6247 92.9198L42.7784 87.51C43.1832 87.0848 43.4065 86.5187 43.4065 85.9172C43.4065 85.3158 43.1832 84.7515 42.7784 84.3272C42.3735 83.902 41.8336 83.6657 41.2609 83.6657C41.2609 83.6657 41.2609 83.6657 41.2592 83.6657C40.6856 83.6657 40.1483 83.8992 39.746 84.3245C39.2131 84.8833 38.3488 84.8833 37.8168 84.3245C37.2839 83.7648 37.2839 82.858 37.8168 82.2992C38.7347 81.3352 39.9589 80.8027 41.2592 80.8027C41.2609 80.8027 41.2609 80.8027 41.2635 80.8027C42.5655 80.8027 43.7871 81.337 44.7085 82.3019C45.629 83.2678 46.136 84.5507 46.136 85.9172C46.136 87.2838 45.629 88.5685 44.7085 89.5326L39.554 94.9424C38.5997 95.9391 37.3522 96.4388 36.1047 96.4388Z" fill="black"/>
<path d="M94.7093 75.2367C91.6346 75.2367 88.8125 73.0797 87.9785 69.8169L80.3151 39.7959C79.835 37.9151 80.0833 35.947 81.0159 34.2525C81.9494 32.5579 83.4504 31.345 85.2395 30.8434L92.7212 28.7382C93.448 28.5347 94.1954 28.9871 94.3901 29.7495L104.953 71.1317C105.147 71.8949 104.716 72.6799 103.99 72.8835L96.5088 74.9887C95.9101 75.1577 95.3063 75.2367 94.7093 75.2367ZM85.9481 33.6065C84.8606 33.9118 83.947 34.6495 83.3786 35.6835C82.8111 36.7175 82.6597 37.9151 82.9504 39.0554L90.6138 69.0764C91.2202 71.447 93.5492 72.8589 95.8055 72.2229L101.968 70.4884L92.1105 31.872L85.9481 33.6065Z" fill="black"/>
<path d="M10.294 75.2247C9.69965 75.2247 9.09405 75.1456 8.49278 74.9739L1.01105 72.8696C0.284338 72.6652 -0.149097 71.8801 0.0472894 71.1178L10.6115 29.7356C10.7058 29.3676 10.9333 29.0569 11.2457 28.8661C11.558 28.6771 11.9326 28.6244 12.2804 28.7216L19.7612 30.8259C23.4709 31.8699 25.6822 35.8877 24.6882 39.782L17.0248 69.8031C16.1917 73.0658 13.3696 75.2247 10.294 75.2247ZM9.19787 72.2081C11.4542 72.8423 13.784 71.4304 14.3896 69.0625L22.053 39.0415C22.6594 36.6709 21.3141 34.2286 19.0561 33.5917L12.8911 31.8572L3.03289 70.4736L9.19787 72.2081Z" fill="black"/>
<mask id="mask1_2251_1404" style="mask-type:luminance" maskUnits="userSpaceOnUse" x="35" y="0" width="35" height="38">
<path d="M35.3496 0H69.6783V37.6233H35.3496V0Z" fill="white"/>
</mask>
<g mask="url(#mask1_2251_1404)">
<path d="M60.8946 37.451C60.5581 37.451 60.2224 37.3211 59.9594 37.0603C59.41 36.5188 59.3867 35.612 59.9023 35.0378C64.3846 30.0478 66.8537 23.7239 66.8537 17.2229C66.8537 14.597 66.4601 12.0048 65.6866 9.50703C60.5347 9.74599 55.6129 7.55899 52.5045 3.7992C49.3961 7.55899 44.4838 9.74872 39.3224 9.50703C38.5463 12.0048 38.1527 14.597 38.1527 17.2229C38.1527 23.6049 40.5414 29.8442 44.8809 34.787C45.3905 35.3685 45.3567 36.2726 44.803 36.8096C44.2493 37.3466 43.3877 37.3066 42.8764 36.7278C38.0722 31.2535 35.4258 24.3254 35.4258 17.2229C35.4258 13.8983 35.989 10.6282 37.1016 7.49993C37.3196 6.88844 37.9044 6.51046 38.5221 6.5777C39.0429 6.63494 39.5707 6.66493 40.0915 6.66493C44.7295 6.66493 49.0483 4.36071 51.3634 0.650898C51.6143 0.245662 52.0451 0.00488281 52.5045 0.00488281C52.9639 0.00488281 53.3921 0.248388 53.6456 0.650898C55.9581 4.36071 60.2769 6.66493 64.9167 6.66493C65.4375 6.66493 65.9661 6.63494 66.4869 6.5777C67.1046 6.51046 67.6894 6.88844 67.9066 7.49993C69.02 10.6255 69.5832 13.8983 69.5832 17.2229C69.5832 24.4544 66.8511 31.4797 61.8913 37.0013C61.6187 37.2993 61.2571 37.451 60.8946 37.451Z" fill="black"/>
</g>
<path d="M49.3306 29.3228C48.9681 29.3228 48.6229 29.1711 48.3668 28.903L43.5091 23.8031C42.9761 23.2443 42.9761 22.3375 43.5091 21.7778C44.042 21.219 44.9054 21.219 45.4383 21.7778L49.3306 25.8638L59.5626 15.1232C60.0955 14.5644 60.9598 14.5644 61.4919 15.1232C62.0248 15.6829 62.0248 16.5897 61.4919 17.1485L50.2961 28.9003C50.0383 29.1711 49.6931 29.3228 49.3306 29.3228Z" fill="black"/>
</svg>
