<svg width="97" height="97" viewBox="0 0 97 97" fill="none" xmlns="http://www.w3.org/2000/svg">
<path fill-rule="evenodd" clip-rule="evenodd" d="M55.6067 49.3473C64.8996 52.1511 71.8673 60.3085 72.928 70.2321C72.975 70.6732 72.8325 71.1136 72.5354 71.4441C72.2384 71.7745 71.8164 71.9625 71.372 71.9625H25.6249C25.1805 71.9625 24.7577 71.7745 24.4607 71.4441C24.1644 71.1136 24.0219 70.6724 24.0689 70.2313C25.1351 60.3069 32.1044 52.1503 41.3942 49.3473C37.7375 46.9966 35.3064 42.89 35.3064 38.2348C35.3064 30.9677 41.2309 25.0375 48.498 25.0375C55.7723 25.0375 61.6961 30.9685 61.6961 38.2348C61.6961 42.89 59.2657 46.9966 55.6067 49.3473ZM48.498 51.4328C38.0401 51.4328 29.3309 58.9237 27.4381 68.8338H69.5596C67.6724 58.9237 58.9616 51.4328 48.498 51.4328ZM48.498 48.3041C54.0475 48.3041 58.5674 43.7795 58.5674 38.2348C58.5674 32.6909 54.0475 28.1662 48.498 28.1662C42.9541 28.1662 38.4359 32.6909 38.4359 38.2348C38.4359 43.7795 42.9541 48.3041 48.498 48.3041ZM53.0251 10.1099C54.4218 10.1131 55.7978 10.7597 56.6809 11.9749C58.1493 13.9959 57.701 16.8292 55.6792 18.2976L51.1585 21.5824C49.5723 22.7346 47.4246 22.7346 45.8376 21.5824L41.3169 18.2976C39.2959 16.8292 38.8476 13.9959 40.316 11.9749C41.1991 10.7597 42.5751 10.1131 43.9718 10.1099V4.52622C43.9718 2.0282 46 0 48.498 0C50.9969 0 53.0251 2.0282 53.0251 4.52622V10.1099ZM49.8956 12.1174V4.52622C49.8956 3.75539 49.2697 3.1287 48.498 3.1287C47.7272 3.1287 47.1013 3.75539 47.1013 4.52622V12.1174C47.1013 12.6852 46.7932 13.2084 46.2971 13.4847C45.8009 13.7602 45.1942 13.7459 44.7116 13.4465C44.0961 13.065 43.2798 13.2187 42.8474 13.8144C42.3943 14.4387 42.5321 15.313 43.1564 15.7661L47.6771 19.0509C48.1668 19.4068 48.8301 19.4068 49.3198 19.0509L53.8405 15.7661C54.464 15.313 54.6026 14.4387 54.1495 13.8144C53.7171 13.2187 52.9008 13.065 52.2853 13.4465C51.8019 13.7459 51.1959 13.7602 50.6998 13.4847C50.2029 13.2084 49.8956 12.6852 49.8956 12.1174ZM53.0251 86.8901V92.4738C53.0251 94.9718 50.9969 97 48.498 97C46 97 43.9718 94.9718 43.9718 92.4738V86.8901C42.5751 86.8869 41.1991 86.2403 40.316 85.0251C38.8476 83.0041 39.2959 80.1708 41.3169 78.7024L45.8376 75.4184C47.4246 74.2654 49.5723 74.2654 51.1585 75.4184L55.6792 78.7024C57.701 80.1708 58.1493 83.0041 56.6809 85.0251C55.7978 86.2403 54.4218 86.8869 53.0251 86.8901ZM52.2853 83.5535C52.9008 83.9358 53.7171 83.7813 54.1495 83.1856C54.6026 82.5621 54.464 81.687 53.8405 81.2339L49.3198 77.9499C48.8301 77.5939 48.1668 77.5939 47.6771 77.9499L43.1564 81.2339C42.5321 81.687 42.3943 82.5621 42.8474 83.1856C43.2798 83.7813 44.0961 83.9358 44.7116 83.5535C45.1942 83.2541 45.8009 83.2398 46.2971 83.5161C46.7932 83.7916 47.1013 84.3148 47.1013 84.8834V92.4738C47.1013 93.2454 47.7272 93.8713 48.498 93.8713C49.2697 93.8713 49.8956 93.2454 49.8956 92.4738V84.8834C49.8956 84.3148 50.2029 83.7916 50.6998 83.5161C51.1959 83.2398 51.8019 83.2541 52.2853 83.5535ZM86.8881 53.0262C86.8849 54.4229 86.2391 55.7998 85.0232 56.6829C83.0021 58.1513 80.1696 57.7021 78.7013 55.6811L75.4165 51.1605C74.2642 49.5742 74.2642 47.4258 75.4165 45.8395L78.7013 41.3189C80.1696 39.2979 83.0021 38.8495 85.0232 40.3171C86.2391 41.2002 86.8849 42.5771 86.8881 43.9738H92.4718C94.9706 43.9738 96.9988 46.002 96.9988 48.5C96.9988 50.998 94.9706 53.0262 92.4718 53.0262H86.8881ZM84.8814 49.8975H92.4718C93.2435 49.8975 93.8694 49.2716 93.8694 48.5C93.8694 47.7292 93.2435 47.1025 92.4718 47.1025H84.8814C84.3136 47.1025 83.7905 46.7951 83.5141 46.299C83.2378 45.8029 83.2522 45.1961 83.5516 44.7136C83.9338 44.098 83.7793 43.2818 83.1837 42.8486C82.5602 42.3955 81.6858 42.5341 81.2327 43.1584L77.9479 47.679C77.592 48.1687 77.592 48.8313 77.9479 49.3218L81.2327 53.8424C81.6858 54.466 82.5602 54.6045 83.1837 54.1514C83.7793 53.7182 83.9338 52.902 83.5516 52.2864C83.2522 51.8039 83.2378 51.1971 83.5141 50.701C83.7905 50.2049 84.3136 49.8975 84.8814 49.8975ZM10.1088 43.9738C10.112 42.5771 10.7578 41.2002 11.9737 40.3171C13.9948 38.8495 16.8272 39.2979 18.2956 41.3189L21.5804 45.8395C22.7327 47.4258 22.7327 49.5742 21.5804 51.1605L18.2956 55.6811C16.8272 57.7021 13.9948 58.1513 11.9737 56.6829C10.7578 55.7998 10.112 54.4229 10.1088 53.0262H4.52427C2.02625 53.0262 -0.00195312 50.998 -0.00195312 48.5C-0.00195312 46.002 2.02625 43.9738 4.52427 43.9738H10.1088ZM12.1155 47.1025H4.52427C3.75344 47.1025 3.12754 47.7292 3.12754 48.5C3.12754 49.2716 3.75344 49.8975 4.52427 49.8975H12.1155C12.6833 49.8975 13.2064 50.2049 13.4827 50.701C13.7591 51.1971 13.7439 51.8039 13.4453 52.2864C13.0631 52.902 13.2176 53.7182 13.8124 54.1514C14.4367 54.6045 15.3111 54.466 15.7642 53.8424L19.0489 49.3218C19.4049 48.8313 19.4049 48.1687 19.0489 47.679L15.7642 43.1584C15.3111 42.5341 14.4367 42.3955 13.8124 42.8486C13.2176 43.2818 13.0631 44.098 13.4453 44.7136C13.7439 45.1961 13.7591 45.8029 13.4827 46.299C13.2064 46.7951 12.6833 47.1025 12.1155 47.1025ZM56.9652 9.6863C56.1211 9.50236 55.5852 8.66862 55.7691 7.82453C55.9523 6.98124 56.786 6.44533 57.6301 6.62848C73.9553 10.1776 86.8204 23.0436 90.3704 39.3687C90.5535 40.212 90.0176 41.0465 89.1735 41.2297C88.3302 41.4128 87.4957 40.8769 87.3125 40.0336C84.0222 24.9014 72.0967 12.9767 56.9652 9.6863ZM87.3125 56.9672C87.4957 56.1231 88.3302 55.5872 89.1735 55.7703C90.0176 55.9543 90.5535 56.788 90.3704 57.6321C86.8204 73.9564 73.9553 86.8224 57.6301 90.3715C56.786 90.5555 55.9523 90.0196 55.7691 89.1755C55.5852 88.3314 56.1211 87.4977 56.9652 87.3145C72.0967 84.0241 84.0222 72.0986 87.3125 56.9672ZM40.0317 87.3145C40.875 87.4977 41.4117 88.3314 41.2277 89.1755C41.0446 90.0196 40.2109 90.5555 39.3668 90.3715C23.0416 86.8224 10.1765 73.9564 6.62652 57.6321C6.44337 56.788 6.97929 55.9543 7.82258 55.7703C8.66667 55.5872 9.5004 56.1231 9.68435 56.9672C12.9747 72.0986 24.8994 84.0241 40.0317 87.3145ZM9.68435 40.0336C9.5004 40.8769 8.66667 41.4128 7.82258 41.2297C6.97929 41.0465 6.44337 40.212 6.62652 39.3687C10.1765 23.0436 23.0416 10.1776 39.3668 6.62848C40.2109 6.44533 41.0446 6.98124 41.2277 7.82453C41.4117 8.66862 40.875 9.50236 40.0317 9.6863C24.8994 12.9767 12.9747 24.9014 9.68435 40.0336Z" fill="black"/>
</svg>
