<svg width="95" height="96" viewBox="0 0 95 96" fill="none" xmlns="http://www.w3.org/2000/svg">
<path fill-rule="evenodd" clip-rule="evenodd" d="M92.0803 91.4069C92.0803 92.0317 91.5738 92.5422 90.949 92.5422H75.7976C75.1721 92.5422 74.6655 92.0317 74.6655 91.4069V64.8694C74.6655 63.5352 71.9331 55.2033 70.6733 53.0886C70.3124 52.481 69.4809 51.4232 68.0388 49.6068C66.57 47.7489 64.7395 45.4385 63.2832 43.3582C61.3478 40.5851 61.0104 39.5242 60.9532 39.2204C61.365 38.4774 62.2435 37.873 63.1212 37.7376C63.5197 37.6734 64.0771 37.6875 64.4655 38.0891L77.7127 51.7075C77.358 56.8748 81.6469 61.1614 86.6562 60.9007L89.3651 63.6871C91.05 65.4135 92.0803 66.5581 92.0803 68.2336V91.4069ZM60.5751 63.9713C61.9632 61.9107 64.7559 57.7595 67.4375 53.5207L64.229 49.4307L58.0211 57.0776C56.4036 59.0702 54.8972 60.6141 53.4551 61.7455C51.8806 63.4272 49.6453 64.481 47.1626 64.481C44.1804 64.481 41.5458 62.9543 39.9988 60.6407C39.0702 59.7764 38.1174 58.739 37.1348 57.5333L30.7742 49.718L27.5219 53.8652C30.1056 57.8848 32.7707 61.8159 34.0947 63.7686C34.5503 64.4442 34.851 64.8866 34.9864 65.0925C36.2125 66.9668 38.7492 74.043 38.7492 75.2323V91.8054C38.7492 92.1977 39.1947 92.5422 39.7052 92.5422H55.1063C55.6167 92.5422 56.0622 92.1977 56.0622 91.8054V75.2323C56.0622 74.043 58.5989 66.9668 59.8219 65.0925C59.9432 64.9101 60.2063 64.5249 60.5751 63.9713ZM20.5577 64.8694V91.4069C20.5577 92.0317 20.0512 92.5422 19.4264 92.5422H4.27426C3.64948 92.5422 3.13979 92.0317 3.13979 91.4069V68.2336C3.13979 66.5581 4.17327 65.4135 5.85501 63.6871L8.56083 60.9077C8.60076 60.9077 8.64852 60.9108 8.68923 60.9108C13.6029 60.9108 17.538 56.7597 17.2945 51.9267L30.7578 38.0891C31.1461 37.6875 31.7036 37.6734 32.099 37.7376C32.9798 37.873 33.8551 38.4774 34.2669 39.2204C34.2097 39.5242 33.8754 40.5851 31.9361 43.3582C30.4838 45.4385 28.6501 47.7489 27.1806 49.6068C25.7423 51.4232 24.9077 52.481 24.5468 53.0886C23.2933 55.2033 20.5577 63.5352 20.5577 64.8694ZM2.96755 52.2986C2.96755 55.453 5.53401 58.0203 8.68923 58.0203C11.8468 58.0203 14.414 55.453 14.414 52.2986C14.414 49.1402 11.8468 46.5738 8.68923 46.5738C5.53401 46.5738 2.96755 49.1402 2.96755 52.2986ZM11.6918 39.2815H25.563L28.6838 36.0723C29.6601 35.0693 31.031 34.6442 32.5413 34.8806C34.3546 35.1609 36.0434 36.3596 36.8647 37.9435C37.0972 38.3287 37.199 38.7679 37.1716 39.2815H40.9312V30.2331H39.374C36.3072 30.2331 33.8042 27.7332 33.8042 24.6602C33.8042 21.5895 36.3072 19.0904 39.374 19.0904H40.9312V10.0421H31.8821V11.5954C31.8821 14.6661 29.383 17.1652 26.3131 17.1652C23.2393 17.1652 20.7402 14.6661 20.7402 11.5954V10.0421H11.6918V39.2815ZM47.1626 50.1432C50.3202 50.1432 52.8874 52.7104 52.8874 55.8648C52.8874 57.2906 52.3636 58.5941 51.5024 59.5939C50.0062 60.7222 48.6455 61.2655 47.3615 61.2655C47.3583 61.2655 47.3583 61.2655 47.3583 61.2655C45.7745 61.2655 44.1092 60.4685 42.2513 58.7938C41.7384 57.9357 41.4409 56.9359 41.4409 55.8648C41.4409 52.7104 44.0082 50.1432 47.1626 50.1432ZM54.2928 39.2815H58.0485C58.0211 38.7679 58.126 38.3287 58.3554 37.9435C59.1799 36.3596 60.8687 35.1609 62.6788 34.8806C64.1922 34.6442 65.56 35.0693 66.5394 36.0723L69.6571 39.2815H83.5322V10.0421H73.0347C72.2376 10.0421 71.5925 9.39379 71.5925 8.59598V5.59342C71.5925 4.11759 70.3899 2.91501 68.9102 2.91501C67.4343 2.91501 66.2318 4.11759 66.2318 5.59342V8.59598C66.2318 9.39379 65.5835 10.0421 64.7865 10.0421H54.2928V20.5357C54.2928 21.3367 53.6437 21.9818 52.8467 21.9818H49.8473C48.3683 21.9818 47.1657 23.1836 47.1657 24.6602C47.1657 26.1392 48.3683 27.3418 49.8473 27.3418H52.8467C53.6437 27.3418 54.2928 27.9869 54.2928 28.7871V39.2815ZM86.3046 46.5738C83.147 46.5738 80.5798 49.1402 80.5798 52.2986C80.5798 55.453 83.147 58.0203 86.3046 58.0203C89.4598 58.0203 92.0263 55.453 92.0263 52.2986C92.0263 49.1402 89.4598 46.5738 86.3046 46.5738ZM91.4352 61.6711L89.9226 60.1107C92.8711 58.7429 94.9177 55.7568 94.9177 52.2986C94.9177 47.5462 91.0539 43.6824 86.3046 43.6824C82.927 43.6824 80.0059 45.6342 78.5904 48.4645L72.4702 42.1729H84.9775C85.7746 42.1729 86.4228 41.5238 86.4228 40.7268V8.59598C86.4228 7.79582 85.7746 7.15068 84.9775 7.15068H74.48V5.59342C74.48 2.52354 71.984 0.0244141 68.9102 0.0244141C65.8403 0.0244141 63.3412 2.52354 63.3412 5.59342V7.15068H52.8467C52.0497 7.15068 51.4014 7.79582 51.4014 8.59598V19.0904H49.8473C46.7743 19.0904 44.2744 21.5895 44.2744 24.6602C44.2744 27.7332 46.7743 30.2331 49.8473 30.2331H51.4014V40.7268C51.4014 41.5238 52.0497 42.1729 52.8467 42.1729H59.0953C59.8148 43.4663 60.9125 45.0635 62.4189 47.0733L55.7584 55.2776C55.4547 50.8024 51.7154 47.2526 47.1626 47.2526C42.7852 47.2526 39.1579 50.5417 38.6208 54.7813L32.5852 47.3637C34.2058 45.2154 35.3748 43.5266 36.1248 42.1729H42.3765C43.1736 42.1729 43.8218 41.5238 43.8218 40.7268V28.7871C43.8218 27.9869 43.1736 27.3418 42.3765 27.3418H39.3771C37.8982 27.3418 36.6956 26.1392 36.6956 24.6633C36.6956 23.1836 37.8982 21.9818 39.3771 21.9818H42.3765C43.1736 21.9818 43.8218 21.3367 43.8218 20.5357V8.59598C43.8218 7.79582 43.1736 7.15068 42.3765 7.15068H30.4368C29.6366 7.15068 28.9915 7.79582 28.9915 8.59598V11.5954C28.9915 13.0712 27.7889 14.2738 26.3131 14.2738C24.8333 14.2738 23.6307 13.0712 23.6307 11.5954V8.59598C23.6307 7.79582 22.9856 7.15068 22.1854 7.15068H10.2457C9.44868 7.15068 8.80041 7.79582 8.80041 8.59598V40.7268C8.80041 41.5238 9.44868 42.1729 10.2457 42.1729H22.7531L16.4771 48.6203C15.096 45.7055 12.1271 43.6824 8.68923 43.6824C3.93995 43.6824 0.0761719 47.5462 0.0761719 52.2986C0.0761719 55.8179 2.19714 58.8478 5.23336 60.1851L3.78493 61.6711C2.04838 63.4507 0.248417 65.2953 0.248417 68.2336V91.4069C0.248417 93.6257 2.05543 95.4328 4.27426 95.4328H19.4264C21.6421 95.4328 23.4483 93.6257 23.4483 91.4069V64.9101C23.5501 64.0488 24.8811 59.749 26.0085 56.8513C28.3025 60.3777 30.5245 63.6605 31.7036 65.3931C32.1326 66.0281 32.4435 66.4877 32.5679 66.6764C33.5646 68.2 35.6926 74.2325 35.861 75.2894V91.8054C35.861 93.805 37.5834 95.4328 39.7052 95.4328H55.1063C57.2272 95.4328 58.9536 93.805 58.9536 91.8054V75.2894C59.1227 74.2325 61.2468 68.2 62.2435 66.6764C62.3617 66.501 62.6146 66.1228 62.9724 65.5857C64.2227 63.7278 66.6068 60.1882 69.0354 56.3988C70.1942 59.28 71.6669 64.005 71.7749 64.9101V91.4069C71.7749 93.6257 73.578 95.4328 75.7937 95.4328H90.949C93.1678 95.4328 94.9717 93.6257 94.9717 91.4069V68.2336C94.9717 65.2953 93.1749 63.4507 91.4352 61.6711Z" fill="black"/>
</svg>
