<svg width="320" height="346" viewBox="0 0 320 346" fill="none" xmlns="http://www.w3.org/2000/svg">
<mask id="mask0_2517_623" style="mask-type:luminance" maskUnits="userSpaceOnUse" x="0" y="0" width="320" height="346">
<path d="M0 0.164062H320V345.836H0V0.164062Z" fill="white"/>
</mask>
<g mask="url(#mask0_2517_623)">
<path d="M100.799 242.318C74.1489 241.839 52.216 255.3 51.9076 272.33C51.5991 289.359 73.0321 303.607 99.6824 304.091C126.333 304.575 148.266 291.109 148.574 274.079C148.882 257.05 127.449 242.802 100.799 242.318Z" fill="#E9B522"/>
<path d="M100.801 242.319C74.1503 241.84 52.2174 255.301 51.9089 272.33C51.6005 289.359 73.0334 303.607 99.6837 304.091C126.334 304.575 148.267 291.109 148.575 274.08C148.884 257.05 127.451 242.803 100.801 242.319ZM99.572 310.149C67.6991 309.569 42.0647 292.529 42.4316 272.16C42.7986 251.791 69.034 235.687 100.907 236.261C132.78 236.835 158.414 253.881 158.047 274.25C157.68 294.619 131.445 310.723 99.572 310.149Z" fill="#F7DE61"/>
<path d="M45.9563 272.229C46.3179 252.237 71.5961 236.357 102.671 236.32C102.086 236.298 101.501 236.282 100.911 236.272C69.0379 235.697 42.8025 251.796 42.4355 272.171C42.0686 292.54 67.6977 309.58 99.5759 310.16C100.166 310.17 100.751 310.176 101.342 310.17C70.2877 309.011 45.6053 292.226 45.9669 272.234L45.9563 272.229Z" fill="#FFF2BD"/>
<path d="M100.8 242.318C100.284 242.308 99.768 242.308 99.2575 242.308C125.184 243.297 145.788 257.321 145.485 274.021C145.181 290.721 124.089 303.99 98.1406 304.043C98.6512 304.064 99.1671 304.08 99.6829 304.091C126.333 304.575 148.266 291.109 148.575 274.079C148.883 257.05 127.45 242.802 100.8 242.318Z" fill="#CE9811"/>
<path d="M157.747 286.232H157.833L158.051 274.255C157.684 294.624 131.448 310.728 99.5753 310.154C67.7024 309.574 42.068 292.534 42.435 272.165C42.435 272.165 42.1956 285.355 42.185 285.966C41.8446 304.745 67.5004 320.488 99.3786 321.067C131.251 321.647 157.46 306.835 157.801 288.062C157.811 287.45 157.79 286.844 157.753 286.237L157.747 286.232Z" fill="#B27E09"/>
<path fill-rule="evenodd" clip-rule="evenodd" d="M87.1057 287.748C84.6859 287.136 82.4202 286.355 80.3089 285.397C77.4529 284.11 75.3628 282.781 74.0332 281.419L82.0799 275.558C83.351 276.824 85.1113 277.999 87.3557 279.079C88.6746 279.717 90.0414 280.249 91.4508 280.68L95.1471 274.67C92.9825 273.883 91.1849 273.133 89.7489 272.41C87.8769 271.469 86.5367 270.192 85.7389 268.575C84.9358 266.959 85.2762 264.943 86.76 262.534C87.9992 260.518 89.85 258.88 92.3071 257.609C94.7695 256.343 97.7052 255.556 101.114 255.248C103.029 255.077 105.023 255.072 107.097 255.237L109.512 251.307L117.298 252.828L114.985 256.593C116.835 257.077 118.612 257.667 120.314 258.369C122.888 259.422 124.845 260.571 126.196 261.81L118.181 267.613C116.155 265.858 113.644 264.533 110.655 263.629L106.784 269.926C109.06 270.772 110.927 271.559 112.4 272.288C114.235 273.197 115.538 274.463 116.314 276.074C117.091 277.686 116.761 279.659 115.33 281.988C114.118 283.961 112.272 285.573 109.799 286.812C107.326 288.056 104.364 288.817 100.917 289.094C99.0348 289.242 97.0723 289.237 95.0194 289.072L92.5943 293.013L84.8082 291.492L87.111 287.748H87.1057ZM99.4124 281.914C101.609 281.829 103.071 281.19 103.805 279.999C104.364 279.09 104.077 278.303 102.949 277.643C102.747 277.526 102.518 277.404 102.263 277.276L99.4124 281.914ZM102.63 262.502C102.258 262.528 101.901 262.576 101.572 262.64C99.9602 262.943 98.8859 263.534 98.354 264.4C97.7477 265.39 98.0083 266.214 99.1412 266.879C99.322 266.985 99.5241 267.092 99.7421 267.209L102.635 262.507L102.63 262.502Z" fill="#CE9811"/>
<path fill-rule="evenodd" clip-rule="evenodd" d="M85.7424 286.572C83.3226 285.961 81.057 285.179 78.9456 284.221C76.0896 282.934 73.9995 281.605 72.6699 280.243L80.7166 274.383C81.9877 275.648 83.7481 276.824 85.9924 277.903C87.3113 278.541 88.6782 279.073 90.0875 279.504L93.7838 273.494C91.6192 272.707 89.8216 271.957 88.3857 271.234C86.5136 270.293 85.1734 269.016 84.3756 267.4C83.5725 265.783 83.9129 263.767 85.3967 261.358C86.6359 259.342 88.4867 257.704 90.9438 256.433C93.4062 255.167 96.3419 254.38 99.751 254.072C101.666 253.902 103.66 253.896 105.734 254.061L108.149 250.131L115.935 251.652L113.621 255.417C115.472 255.901 117.248 256.492 118.95 257.194C121.524 258.247 123.481 259.395 124.832 260.635L116.818 266.437C114.791 264.682 112.281 263.358 109.292 262.453L105.42 268.75C107.697 269.596 109.563 270.383 111.037 271.112C112.871 272.021 114.174 273.287 114.951 274.898C115.727 276.51 115.398 278.483 113.967 280.812C112.754 282.786 110.909 284.397 108.436 285.636C105.963 286.881 103 287.641 99.5542 287.918C97.6715 288.067 95.709 288.061 93.6561 287.896L91.231 291.837L83.4449 290.316L85.7478 286.572H85.7424ZM98.0491 280.738C100.246 280.653 101.708 280.015 102.442 278.823C103 277.914 102.713 277.127 101.586 276.467C101.384 276.35 101.155 276.228 100.9 276.1L98.0491 280.738ZM101.267 261.326C100.894 261.353 100.538 261.4 100.208 261.464C98.5969 261.767 97.5226 262.358 96.9907 263.225C96.3845 264.214 96.6451 265.038 97.7779 265.703C97.9587 265.809 98.1608 265.916 98.3788 266.033L101.272 261.331L101.267 261.326Z" fill="#F7DE61"/>
<path d="M239.804 228.826C239.804 228.826 240.91 238.5 234.177 238.829C227.439 239.159 93.2193 251.907 93.2193 251.907C93.2193 251.907 86.1087 252.902 85.9597 244.648C85.8534 238.707 71.0684 93.0321 71.0684 93.0321L100.266 55.7132L213.946 45.0233C213.946 45.0233 222.216 43.8107 222.902 53.8677C223.604 64.1694 239.814 228.826 239.814 228.826H239.804Z" fill="white"/>
<path d="M100.254 55.7129L102.174 80.8315C102.174 80.8315 103.376 88.1868 95.1222 89.9844C85.8895 92 71.0566 93.0318 71.0566 93.0318L100.254 55.7129Z" fill="#E5E3E3"/>
<path d="M129.71 87.8046C129.811 87.8046 129.906 87.7993 130.007 87.7887L201.332 80.7578C202.98 80.5929 204.188 79.1251 204.028 77.4711C203.863 75.8224 202.406 74.6045 200.741 74.7747L129.422 81.8055C127.774 81.9704 126.561 83.4383 126.726 85.0923C126.88 86.6452 128.188 87.8046 129.715 87.8046H129.71Z" fill="#DBE2ED"/>
<path d="M92.8312 119.528C92.9269 119.528 93.028 119.523 93.129 119.512L208.697 108.12C210.346 107.961 211.553 106.487 211.393 104.833C211.234 103.179 209.771 101.967 208.107 102.137L92.5387 113.529C90.89 113.688 89.6827 115.162 89.8423 116.816C89.9965 118.369 91.3048 119.528 92.8312 119.528Z" fill="#DBE2ED"/>
<path d="M94.8312 136.93C94.9269 136.93 95.028 136.925 95.129 136.914L210.697 125.523C212.346 125.358 213.553 123.89 213.393 122.236C213.228 120.582 211.771 119.369 210.107 119.539L94.5387 130.931C92.89 131.091 91.6827 132.564 91.8423 134.218C91.9965 135.771 93.3048 136.93 94.8312 136.93Z" fill="#DBE2ED"/>
<path d="M96.2676 154.337C96.3634 154.337 96.4644 154.331 96.5655 154.321L212.133 142.929C213.782 142.769 214.989 141.296 214.83 139.642C214.665 137.988 213.208 136.775 211.543 136.946L95.9751 148.338C94.3211 148.502 93.1139 149.97 93.2787 151.624C93.433 153.177 94.7413 154.337 96.2676 154.337Z" fill="#DBE2ED"/>
<path d="M98.0977 171.739C98.1935 171.739 98.2945 171.734 98.3956 171.723L213.963 160.331C215.612 160.166 216.819 158.698 216.66 157.044C216.495 155.39 215.038 154.178 213.373 154.348L97.8052 165.74C96.1512 165.899 94.9439 167.373 95.1088 169.027C95.263 170.58 96.5714 171.739 98.0977 171.739Z" fill="#DBE2ED"/>
<path d="M99.8996 188.145C99.9953 188.145 100.096 188.14 100.197 188.129L215.765 176.737C217.414 176.572 218.621 175.105 218.462 173.451C218.302 171.802 216.84 170.584 215.175 170.754L99.607 182.146C97.9584 182.311 96.7511 183.779 96.9106 185.433C97.0649 186.986 98.3732 188.145 99.8996 188.145Z" fill="#DBE2ED"/>
<path d="M102.099 206.356C102.195 206.356 102.296 206.351 102.397 206.34L217.964 194.948C219.613 194.783 220.82 193.316 220.661 191.662C220.496 190.013 219.039 188.795 217.374 188.965L101.806 200.357C100.158 200.522 98.9503 201.99 99.1099 203.644C99.2641 205.197 100.572 206.356 102.099 206.356Z" fill="#DBE2ED"/>
<path d="M258.324 108.695C239.778 89.5484 214.74 83.6132 202.502 95.4624C190.265 107.312 195.397 132.531 213.942 151.677C232.487 170.824 257.526 176.759 269.763 164.91C282.001 153.06 276.863 127.841 258.324 108.695Z" fill="#34B76C"/>
<path d="M258.324 108.695C239.779 89.5486 214.74 83.6133 202.503 95.4626C190.265 107.312 195.397 132.531 213.942 151.678C232.488 170.824 257.526 176.759 269.764 164.91C282.001 153.06 276.864 127.841 258.324 108.695ZM209.592 155.895C187.415 132.994 181.272 102.834 195.908 88.6604C210.544 74.487 240.492 81.587 262.675 104.482C284.857 127.383 290.995 157.544 276.359 171.717C261.723 185.891 231.775 178.791 209.592 155.895Z" fill="#33CC66"/>
<path d="M198.36 91.1867C212.725 77.2739 241.843 83.8581 263.887 105.759C263.488 105.328 263.084 104.903 262.675 104.477C240.492 81.5765 210.544 74.4765 195.908 88.6552C181.272 102.829 187.415 132.994 209.592 155.89C210.002 156.315 210.416 156.73 210.831 157.145C189.648 134.414 183.995 105.1 198.36 91.1867Z" fill="#9DE7B5"/>
<path d="M258.324 108.695C257.963 108.323 257.601 107.961 257.234 107.6C274.907 126.597 279.614 151.072 267.615 162.692C255.617 174.313 231.307 168.83 212.879 150.561C213.23 150.939 213.581 151.311 213.943 151.683C232.488 170.83 257.526 176.765 269.764 164.916C282.002 153.066 276.864 127.847 258.324 108.701V108.695Z" fill="#339966"/>
<path d="M267.694 179.992L267.753 180.051L276.358 171.717C261.722 185.89 231.774 178.796 209.591 155.895C187.414 132.994 181.271 102.834 195.907 88.6602C195.907 88.6602 186.43 97.8396 185.994 98.2651C172.506 111.332 179.574 140.594 201.752 163.489C223.929 186.39 252.952 194.389 266.444 181.322C266.886 180.896 267.301 180.45 267.694 179.992Z" fill="#00631F"/>
<path fill-rule="evenodd" clip-rule="evenodd" d="M205.604 130.42L217.112 125.315L213.039 121.262L219.086 118.582L223.159 122.634L228.52 120.257L224.446 116.204L230.493 113.524L234.567 117.577L245.353 112.79L250.006 117.428L243.178 126.155L248.996 131.947L259.782 127.16L264.228 131.585L253.442 136.372L257.516 140.424L251.469 143.105L247.395 139.052L242.034 141.429L246.108 145.482L240.061 148.162L235.987 144.11L224.478 149.215L219.676 144.429L226.946 135.101L221.559 129.74L210.05 134.845L205.604 130.42ZM230.765 130.202L234.152 125.857L232.966 124.677L227.606 127.054L230.765 130.197V130.202ZM235.961 135.377L237.593 136.999L242.954 134.622L239.354 131.037L235.961 135.372V135.377Z" fill="#339966"/>
<path fill-rule="evenodd" clip-rule="evenodd" d="M205.369 128.117L216.878 123.011L212.804 118.958L218.851 116.278L222.925 120.331L228.286 117.953L224.212 113.901L230.259 111.22L234.333 115.273L245.119 110.486L249.772 115.124L242.943 123.851L248.762 129.643L259.547 124.857L263.993 129.281L253.208 134.068L257.282 138.12L251.235 140.801L247.161 136.748L241.8 139.126L245.874 143.178L239.827 145.859L235.753 141.806L224.244 146.912L219.441 142.131L226.712 132.802L221.324 127.441L209.815 132.547L205.369 128.122V128.117ZM230.53 127.899L233.918 123.554L232.732 122.373L227.371 124.75L230.53 127.893V127.899ZM235.726 133.073L237.359 134.695L242.72 132.318L239.119 128.734L235.726 133.068V133.073Z" fill="#33CC66"/>
</g>
</svg>
