<svg width="80" height="40" viewBox="0 0 80 40" fill="none" xmlns="http://www.w3.org/2000/svg">
<path d="M1.54006 15.3291C2.37955 16.0036 3.42769 16.5568 4.67964 16.9741C5.93159 17.3963 7.24662 17.6049 8.61503 17.6049C9.85727 17.6049 10.8569 17.4011 11.6042 16.9886C12.3563 16.5762 12.73 15.989 12.73 15.2175C12.73 14.8535 12.6766 14.5236 12.565 14.2276C12.4534 13.9364 12.269 13.6889 12.0021 13.4851C11.7352 13.2862 11.4877 13.1163 11.2596 12.9756C11.0316 12.8397 10.6725 12.7087 10.1921 12.5923C9.70684 12.4758 9.32835 12.3885 9.05175 12.3302C8.77516 12.2769 8.33843 12.1944 7.73672 12.0828C5.41237 11.68 3.67517 11.0443 2.52512 10.1757C1.37508 9.30712 0.79763 8.05032 0.79763 6.40532C0.79763 4.66812 1.47213 3.29 2.81628 2.27583C4.16042 1.26165 5.92188 0.752139 8.09581 0.752139C11.3324 0.752139 13.8752 1.45575 15.724 2.86298L14.5157 5.55127C13.7635 5.02235 12.7979 4.59048 11.609 4.26051C10.4202 3.93053 9.241 3.76555 8.07155 3.76555C6.97488 3.76555 6.08687 3.95965 5.41237 4.343C4.73787 4.72635 4.39819 5.27468 4.39819 5.988C4.39819 6.27915 4.44672 6.54119 4.54862 6.76925C4.65052 6.99732 4.82036 7.20113 5.05814 7.37097C5.29591 7.54566 5.52883 7.69123 5.7569 7.80769C5.98497 7.92415 6.31008 8.04061 6.73225 8.15222C7.15442 8.26383 7.49895 8.35117 7.77554 8.42881C8.05214 8.5016 8.4549 8.5938 8.99838 8.70541C9.53701 8.81701 9.94462 8.89951 10.2212 8.95288C11.0801 9.13728 11.8274 9.34594 12.4582 9.58371C13.089 9.82148 13.7296 10.1563 14.3798 10.5833C15.03 11.0152 15.525 11.5781 15.8598 12.2866C16.1995 12.9902 16.3693 13.8297 16.3693 14.7953C16.3693 16.6587 15.656 18.095 14.2294 19.1043C12.8027 20.1088 10.8714 20.6135 8.44034 20.6135C5.05814 20.6135 2.34073 19.7643 0.292969 18.0611L1.55462 15.3194L1.54006 15.3291ZM15.2921 8.08914V6.6625C15.2921 6.40532 15.4085 6.25004 15.6463 6.19666L16.908 5.75993H17.6747V5.2116C17.6747 4.5371 17.5728 4.05185 17.3738 3.75584C17.1749 3.46469 16.8352 3.2803 16.3596 3.20751V2.11084H18.9363C20.4552 2.11084 21.2122 2.84357 21.2122 4.30418V5.75993H24.5846V8.09399H21.2122V15.4989C21.2122 16.9644 21.9546 17.6923 23.4346 17.6923C23.949 17.6923 24.4876 17.6098 25.0553 17.4448L25.8803 19.9147C24.8904 20.2447 23.8859 20.4097 22.862 20.4097C21.3238 20.4097 20.0767 20.0263 19.1159 19.2596C18.1551 18.4929 17.6747 17.241 17.6747 15.4989V8.09399H15.2872L15.2921 8.08914ZM24.8176 11.054C24.8564 9.26345 25.4047 7.89504 26.4626 6.95365C27.5253 6.01226 29.0975 5.54157 31.1792 5.54157C33.2464 5.54157 34.8089 6.01226 35.8716 6.95365C36.9343 7.89504 37.4826 9.26345 37.5166 11.054V13.6064C37.5166 13.8442 37.3904 13.9607 37.1332 13.9607H28.355V14.8924C28.355 15.8629 28.6171 16.5859 29.1363 17.0614C29.6555 17.537 30.3737 17.7748 31.2908 17.7748C32.0963 17.7748 32.8242 17.6195 33.4696 17.3089C34.1198 16.9984 34.6002 16.5762 34.9108 16.0473L36.9683 17.5855C35.9444 19.4877 34.0034 20.4388 31.1549 20.4388C26.9672 20.4388 24.8564 18.5997 24.8176 14.9263V11.0589V11.054ZM28.355 10.9715V11.714H34.0616V10.9715C34.0616 9.12272 33.1105 8.20075 31.2083 8.20075C30.2766 8.20075 29.5682 8.44337 29.0829 8.92862C28.5977 9.41387 28.355 10.0932 28.355 10.9715ZM37.0605 0H39.6371C41.1366 0 41.8936 0.732729 41.913 2.19334V16.2365C41.913 16.7509 42.0003 17.11 42.175 17.3186C42.3497 17.5273 42.6651 17.634 43.1212 17.634C43.4318 17.634 43.723 17.6049 43.9995 17.5515L44.247 20.1573C43.5725 20.2495 42.8835 20.2932 42.1896 20.2932C41.6412 20.2932 41.1705 20.2544 40.7775 20.1719C40.3844 20.0894 39.9914 19.939 39.5983 19.7206C39.2053 19.5022 38.9044 19.1432 38.6909 18.6531C38.4822 18.1581 38.3755 17.537 38.3755 16.7897V3.10076C38.3755 2.42626 38.2736 1.941 38.0746 1.645C37.8757 1.35385 37.536 1.16946 37.0605 1.09667V0ZM42.966 0H45.5426C47.0421 0 47.7991 0.732729 47.8185 2.19334V16.2365C47.8185 16.7509 47.9058 17.11 48.0805 17.3186C48.2552 17.5273 48.5706 17.634 49.0268 17.634C49.3373 17.634 49.6285 17.6049 49.9051 17.5515L50.1525 20.1573C49.478 20.2495 48.789 20.2932 48.0951 20.2932C47.5467 20.2932 47.076 20.2544 46.683 20.1719C46.2899 20.0894 45.8969 19.939 45.5038 19.7206C45.1108 19.5022 44.8099 19.1432 44.5964 18.6531C44.3878 18.1581 44.281 17.537 44.281 16.7897V3.10076C44.281 2.42626 44.1791 1.941 43.9801 1.645C43.7812 1.35385 43.4415 1.16946 42.966 1.09667V0ZM49.4198 11.054C49.4586 9.26345 50.007 7.89504 51.0648 6.95365C52.1275 6.01226 53.6997 5.54157 55.7814 5.54157C57.8486 5.54157 59.4111 6.01226 60.4738 6.95365C61.5365 7.89504 62.0849 9.26345 62.1188 11.054V13.6064C62.1188 13.8442 61.9927 13.9607 61.7355 13.9607H52.9573V14.8924C52.9573 15.8629 53.2193 16.5859 53.7385 17.0614C54.2578 17.537 54.9759 17.7748 55.8931 17.7748C56.6986 17.7748 57.4264 17.6195 58.0718 17.3089C58.7221 16.9984 59.2025 16.5762 59.513 16.0473L61.5705 17.5855C60.5466 19.4877 58.6056 20.4388 55.7572 20.4388C51.5695 20.4388 49.4586 18.5997 49.4198 14.9263V11.0589V11.054ZM52.9573 10.9715V11.714H58.6638V10.9715C58.6638 9.12272 57.7127 8.20075 55.8106 8.20075C54.8789 8.20075 54.1704 8.44337 53.6852 8.92862C53.1999 9.41387 52.9573 10.0932 52.9573 10.9715Z" fill="#FFFDF9"/>
<path d="M2.59609 20.623C4.07611 20.623 4.81855 21.3363 4.81855 22.763V28.7024H14.0238V20.6182H17.5564V39.3537H14.0238V31.4296H4.81855V39.3537H1.28592V23.6461C1.28592 22.9862 1.18887 22.5155 0.989913 22.2292C0.795812 21.9429 0.465841 21.7634 0 21.6954V20.623H2.59609ZM18.6628 30.3377C18.6967 28.5908 19.2693 27.2564 20.3757 26.3344C21.4821 25.4173 23.098 24.9563 25.2185 24.9563C27.3439 24.9563 28.9549 25.4173 30.0613 26.3344C31.1677 27.2515 31.7403 28.586 31.7743 30.3377V34.113C31.7403 35.8599 31.1677 37.1943 30.0613 38.1163C28.9549 39.0334 27.3391 39.4944 25.2185 39.4944C23.0931 39.4944 21.4821 39.0334 20.3757 38.1163C19.2693 37.1992 18.6967 35.8648 18.6628 34.113V30.3377ZM22.1129 30.3669V34.0887C22.1129 34.9816 22.3749 35.6707 22.9039 36.1608C23.4279 36.6509 24.2043 36.8983 25.2185 36.8983C26.2375 36.8983 27.0091 36.6509 27.5332 36.1608C28.0572 35.6707 28.3241 34.9767 28.3241 34.0887V30.3669C28.3241 30.3329 28.3241 30.3038 28.3241 30.2844C28.3241 29.4303 28.0669 28.7607 27.5477 28.2754C27.0285 27.795 26.2521 27.5524 25.2185 27.5524C24.1995 27.5524 23.4279 27.7999 22.9039 28.29C22.3798 28.7801 22.1129 29.474 22.1129 30.362V30.3669ZM31.3521 25.0922H33.8657C35.0982 25.0922 35.8213 25.592 36.0348 26.5916C37.1751 25.5046 38.5338 24.9612 40.1012 24.9612C42.3867 24.9612 43.9832 25.757 44.8906 27.3437C46.1571 25.757 47.7342 24.9612 49.6266 24.9612C51.393 24.9612 52.7517 25.4367 53.7076 26.3927C54.6636 27.3486 55.1585 28.7073 55.1925 30.4736V39.3586H51.7423V30.5804C51.7423 28.5666 50.8252 27.5573 48.9861 27.5573C47.9331 27.5573 47.1082 27.8969 46.5113 28.5763C45.9145 29.2556 45.6136 30.1097 45.6136 31.1433V39.3586H42.2169V30.5804C42.2169 28.5666 41.2803 27.5573 39.4073 27.5573C38.3737 27.5573 37.5584 27.8969 36.9713 28.5763C36.3841 29.2556 36.0881 30.1097 36.0881 31.1433V39.3586H32.638V28.1201C32.638 27.4602 32.541 26.9895 32.342 26.7032C32.1479 26.4169 31.8179 26.2374 31.3521 26.1694V25.097V25.0922ZM55.9786 30.3377C56.0126 28.5908 56.5512 27.2564 57.5848 26.3344C58.6184 25.4173 60.1517 24.9563 62.1898 24.9563C64.2036 24.9563 65.7321 25.4173 66.7657 26.3344C67.7993 27.2515 68.3379 28.586 68.3719 30.3377V32.8271C68.3719 33.06 68.2457 33.1765 67.9983 33.1765H59.4336V34.0887C59.4336 35.035 59.6859 35.7386 60.1954 36.2044C60.7049 36.6703 61.4037 36.8983 62.2966 36.8983C63.0827 36.8983 63.7911 36.7479 64.422 36.4422C65.0576 36.1413 65.5235 35.7289 65.8292 35.2097L67.8381 36.7091C66.8385 38.5628 64.946 39.4944 62.1655 39.4944C58.0797 39.4944 56.0174 37.699 55.9834 34.113V30.3377H55.9786ZM59.4287 30.2553V30.9783H64.9946V30.2553C64.9946 28.455 64.0677 27.5524 62.2092 27.5524C61.2969 27.5524 60.6079 27.7902 60.1372 28.2609C59.6665 28.7316 59.4287 29.3964 59.4287 30.2553ZM69.2017 35.5833C69.6821 35.957 70.4342 36.2772 71.4484 36.549C72.4674 36.8158 73.4282 36.9517 74.3405 36.9517C75.0198 36.9517 75.5682 36.8256 75.9855 36.5781C76.4028 36.3306 76.6163 35.9521 76.6163 35.4523C76.6163 35.166 76.5387 34.9234 76.3883 34.7147C76.2378 34.5109 76.0001 34.3362 75.6798 34.1906C75.3595 34.0499 75.049 33.9383 74.7578 33.8558C74.4618 33.7733 74.0639 33.6714 73.5544 33.5501C73.0449 33.4239 72.647 33.3172 72.3655 33.2298C69.9199 32.5165 68.697 31.1141 68.697 29.0276C68.7164 27.7611 69.2308 26.7663 70.2498 26.0433C71.2689 25.3202 72.5693 24.9612 74.1561 24.9612C76.3494 24.9612 78.1546 25.461 79.5618 26.4606L78.4894 28.7607C77.383 27.9212 76.0098 27.5039 74.3696 27.5039C73.6757 27.5039 73.1177 27.63 72.6955 27.8775C72.2782 28.125 72.0647 28.4841 72.0647 28.9499C72.0647 29.1101 72.0938 29.2556 72.1569 29.3915C72.2199 29.5274 72.3267 29.6438 72.4771 29.7506C72.6276 29.8573 72.7683 29.9447 72.8896 30.0175C73.0158 30.0903 73.2147 30.1631 73.4913 30.2455C73.7679 30.328 73.9814 30.3863 74.1318 30.4348C74.2823 30.4785 74.5443 30.5416 74.9228 30.624C75.2964 30.7065 75.5585 30.7648 75.6992 30.7987C76.9997 31.1384 78.043 31.6334 78.8194 32.2836C79.5958 32.9338 79.984 33.9383 79.984 35.2922C79.95 36.612 79.4211 37.6408 78.4069 38.3832C77.3879 39.1256 76.0146 39.4944 74.2871 39.4944C71.6473 39.4944 69.5947 38.9607 68.1293 37.8883L69.2017 35.5882V35.5833Z" fill="#FFFDF9"/>
<path fill-rule="evenodd" clip-rule="evenodd" d="M66.3828 10.3647H79.999V5.14336L73.6131 0.732422L66.3828 5.44421V10.3647Z" fill="#F7BD01"/>
<path fill-rule="evenodd" clip-rule="evenodd" d="M73.0172 12.0977C75.9578 12.0977 78.5345 13.631 80 15.9457V20.6284H66.3887V15.4362C67.893 13.4127 70.3046 12.1025 73.0221 12.1025L73.0172 12.0977Z" fill="#F7BD01"/>
</svg>
