<svg width="97" height="48" viewBox="0 0 97 48" fill="none" xmlns="http://www.w3.org/2000/svg">
<g clip-path="url(#clip0_2031_311)">
<path d="M1.86562 18.5923C2.88349 19.4102 4.15436 20.0809 5.67234 20.5869C7.19033 21.0988 8.7848 21.3518 10.444 21.3518C11.9502 21.3518 13.1622 21.1047 14.0683 20.6045C14.9803 20.1044 15.4333 19.3925 15.4333 18.457C15.4333 18.0157 15.3686 17.6156 15.2333 17.2567C15.098 16.9037 14.8744 16.6037 14.5508 16.3565C14.2272 16.1153 13.9271 15.9094 13.6506 15.7388C13.3741 15.574 12.9387 15.4152 12.3562 15.274C11.7678 15.1327 11.3089 15.0268 10.9735 14.9562C10.6381 14.8915 10.1086 14.7915 9.37905 14.6562C6.56077 14.1678 4.45442 13.3971 3.06 12.3439C1.66557 11.2907 0.965416 9.76685 0.965416 7.77229C0.965416 5.66594 1.78324 3.99498 3.41302 2.76529C5.04279 1.53561 7.17856 0.917826 9.81444 0.917826C13.7388 0.917826 16.8219 1.77096 19.0635 3.47722L17.5985 6.73676C16.6866 6.09545 15.5157 5.5718 14.0742 5.17171C12.6327 4.77162 11.203 4.57158 9.78502 4.57158C8.45531 4.57158 7.3786 4.80692 6.56077 5.27173C5.74295 5.73654 5.33109 6.4014 5.33109 7.26629C5.33109 7.61931 5.38993 7.93703 5.51348 8.21356C5.63704 8.49009 5.84297 8.73721 6.13127 8.94314C6.41957 9.15495 6.70198 9.33146 6.97851 9.47266C7.25505 9.61387 7.64925 9.75508 8.16113 9.8904C8.67301 10.0257 9.09075 10.1316 9.42612 10.2258C9.76149 10.314 10.2498 10.4258 10.9088 10.5611C11.5619 10.6965 12.0561 10.7965 12.3915 10.8612C13.4329 11.0848 14.339 11.3378 15.1038 11.6261C15.8687 11.9144 16.6454 12.3204 17.4338 12.8381C18.2222 13.3618 18.8223 14.0443 19.2283 14.9033C19.6401 15.7564 19.8461 16.7743 19.8461 17.9451C19.8461 20.2045 18.9812 21.946 17.2514 23.1698C15.5216 24.3877 13.1799 24.9996 10.2322 24.9996C6.13127 24.9996 2.83642 23.97 0.353516 21.9048L1.88327 18.5806L1.86562 18.5923ZM18.5399 9.81392V8.08412C18.5399 7.77229 18.6811 7.58401 18.9694 7.51929L20.4992 6.98976H21.4288V6.32491C21.4288 5.50708 21.3052 4.91871 21.064 4.55981C20.8228 4.20679 20.4109 3.98321 19.8343 3.89496V2.56525H22.9585C24.8001 2.56525 25.718 3.45368 25.718 5.22466V6.98976H29.8071V9.8198H25.718V18.7983C25.718 20.5751 26.6182 21.4577 28.4127 21.4577C29.0364 21.4577 29.6894 21.3577 30.3778 21.1576L31.378 24.1524C30.1778 24.5525 28.9599 24.7525 27.7184 24.7525C25.8533 24.7525 24.3412 24.2877 23.1762 23.3581C22.0113 22.4285 21.4288 20.9105 21.4288 18.7983V9.8198H18.534L18.5399 9.81392ZM30.0895 13.4088C30.1366 11.2378 30.8014 9.57857 32.0841 8.43714C33.3726 7.29571 35.2789 6.725 37.803 6.725C40.3094 6.725 42.204 7.29571 43.4925 8.43714C44.781 9.57857 45.4459 11.2378 45.4871 13.4088V16.5036C45.4871 16.7919 45.3341 16.9331 45.0222 16.9331H34.3787V18.0628C34.3787 19.2395 34.6964 20.1162 35.326 20.6928C35.9555 21.2694 36.8263 21.5577 37.9383 21.5577C38.915 21.5577 39.7976 21.3694 40.5801 20.9929C41.3685 20.6163 41.951 20.1044 42.3275 19.4631L44.8222 21.3282C43.5808 23.6346 41.2273 24.7878 37.7736 24.7878C32.696 24.7878 30.1366 22.5579 30.0895 18.104V13.4147V13.4088ZM34.3787 13.3088V14.209H41.2979V13.3088C41.2979 11.0671 40.1447 9.94924 37.8383 9.94924C36.7086 9.94924 35.8496 10.2434 35.2613 10.8318C34.6729 11.4202 34.3787 12.2439 34.3787 13.3088ZM44.934 0.00585938H48.0582C49.8763 0.00585938 50.7941 0.894292 50.8177 2.66527V19.6926C50.8177 20.3162 50.9236 20.7516 51.1354 21.0046C51.3472 21.2576 51.7296 21.3871 52.2827 21.3871C52.6592 21.3871 53.0123 21.3518 53.3476 21.2871L53.6477 24.4466C52.8299 24.5584 51.9944 24.6113 51.153 24.6113C50.4882 24.6113 49.9174 24.5642 49.4409 24.4642C48.9643 24.3642 48.4877 24.1818 48.0111 23.917C47.5346 23.6523 47.1698 23.2169 46.9109 22.6226C46.6579 22.0225 46.5285 21.2694 46.5285 20.3633V3.76552C46.5285 2.94769 46.4049 2.35932 46.1637 2.00042C45.9224 1.6474 45.5106 1.42382 44.934 1.33557V0.00585938ZM52.0944 0.00585938H55.2186C57.0367 0.00585938 57.9545 0.894292 57.9781 2.66527V19.6926C57.9781 20.3162 58.084 20.7516 58.2958 21.0046C58.5076 21.2576 58.89 21.3871 59.4431 21.3871C59.8196 21.3871 60.1727 21.3518 60.508 21.2871L60.8081 24.4466C59.9903 24.5584 59.1548 24.6113 58.3134 24.6113C57.6486 24.6113 57.0779 24.5642 56.6013 24.4642C56.1247 24.3642 55.6481 24.1818 55.1716 23.917C54.695 23.6523 54.3302 23.2169 54.0713 22.6226C53.8183 22.0225 53.6889 21.2694 53.6889 20.3633V3.76552C53.6889 2.94769 53.5653 2.35932 53.3241 2.00042C53.0829 1.6474 52.671 1.42382 52.0944 1.33557V0.00585938ZM59.9197 13.4088C59.9667 11.2378 60.6316 9.57857 61.9142 8.43714C63.2028 7.29571 65.1091 6.725 67.6331 6.725C70.1396 6.725 72.0341 7.29571 73.3226 8.43714C74.6112 9.57857 75.276 11.2378 75.3172 13.4088V16.5036C75.3172 16.7919 75.1642 16.9331 74.8524 16.9331H64.2089V18.0628C64.2089 19.2395 64.5266 20.1162 65.1561 20.6928C65.7857 21.2694 66.6565 21.5577 67.7685 21.5577C68.7452 21.5577 69.6277 21.3694 70.4102 20.9929C71.1986 20.6163 71.7811 20.1044 72.1577 19.4631L74.6523 21.3282C73.4109 23.6346 71.0574 24.7878 67.6037 24.7878C62.5261 24.7878 59.9667 22.5579 59.9197 18.104V13.4147V13.4088ZM64.2089 13.3088V14.209H71.128V13.3088C71.128 11.0671 69.9748 9.94924 67.6684 9.94924C66.5388 9.94924 65.6798 10.2434 65.0914 10.8318C64.503 11.4202 64.2089 12.2439 64.2089 13.3088Z" fill="black"/>
<path d="M3.14776 25.0117C4.94227 25.0117 5.84247 25.8766 5.84247 27.6064V34.808H17.0038V25.0059H21.2871V47.7227H17.0038V38.1146H5.84247V47.7227H1.55917V28.6773C1.55917 27.8771 1.4415 27.3064 1.20027 26.9592C0.96492 26.6121 0.564831 26.3944 0 26.312V25.0117H3.14776ZM22.6285 36.7908C22.6697 34.6727 23.364 33.0547 24.7055 31.9368C26.047 30.8248 28.0062 30.2658 30.5774 30.2658C33.1544 30.2658 35.1078 30.8248 36.4493 31.9368C37.7907 33.0488 38.485 34.6668 38.5262 36.7908V41.3683C38.485 43.4864 37.7907 45.1044 36.4493 46.2223C35.1078 47.3343 33.1485 47.8933 30.5774 47.8933C28.0003 47.8933 26.047 47.3343 24.7055 46.2223C23.364 45.1103 22.6697 43.4923 22.6285 41.3683V36.7908ZM26.8118 36.8261V41.3389C26.8118 42.4215 27.1295 43.257 27.7709 43.8512C28.4063 44.4455 29.3477 44.7455 30.5774 44.7455C31.8129 44.7455 32.7484 44.4455 33.3839 43.8512C34.0193 43.257 34.3429 42.4156 34.3429 41.3389V36.8261C34.3429 36.7849 34.3429 36.7496 34.3429 36.7261C34.3429 35.6906 34.0311 34.8786 33.4015 34.2903C32.772 33.7078 31.8306 33.4136 30.5774 33.4136C29.3418 33.4136 28.4063 33.7137 27.7709 34.3079C27.1354 34.9022 26.8118 35.7435 26.8118 36.8202V36.8261ZM38.0143 30.4306H41.062C42.5565 30.4306 43.4332 31.0366 43.692 32.2486C45.0747 30.9307 46.7221 30.2717 48.6225 30.2717C51.3938 30.2717 53.3295 31.2367 54.4297 33.1606C55.9654 31.2367 57.8775 30.2717 60.1722 30.2717C62.3138 30.2717 63.9612 30.8483 65.1203 32.0074C66.2794 33.1665 66.8795 34.8139 66.9207 36.9556V47.7285H62.7374V37.085C62.7374 34.6433 61.6254 33.4195 59.3955 33.4195C58.1188 33.4195 57.1185 33.8313 56.3949 34.6551C55.6712 35.4788 55.3064 36.5143 55.3064 37.7675V47.7285H51.1878V37.085C51.1878 34.6433 50.0523 33.4195 47.7812 33.4195C46.528 33.4195 45.5395 33.8313 44.8276 34.6551C44.1157 35.4788 43.7568 36.5143 43.7568 37.7675V47.7285H39.5735V34.102C39.5735 33.3018 39.4558 32.7311 39.2146 32.384C38.9792 32.0368 38.5791 31.8191 38.0143 31.7368V30.4365V30.4306ZM67.8739 36.7908C67.9151 34.6727 68.5681 33.0547 69.8214 31.9368C71.0746 30.8248 72.9338 30.2658 75.405 30.2658C77.8467 30.2658 79.7 30.8248 80.9532 31.9368C82.2065 33.0488 82.8596 34.6668 82.9007 36.7908V39.8091C82.9007 40.0916 82.7478 40.2328 82.4477 40.2328H72.063V41.3389C72.063 42.4862 72.369 43.3393 72.9868 43.9042C73.6046 44.469 74.4518 44.7455 75.5344 44.7455C76.4876 44.7455 77.3466 44.5631 78.1114 44.1925C78.8822 43.8277 79.447 43.3276 79.8177 42.698L82.2535 44.5161C81.0415 46.7636 78.7469 47.8933 75.3755 47.8933C70.4215 47.8933 67.921 45.7163 67.8798 41.3683V36.7908H67.8739ZM72.0572 36.6908V37.5675H78.8057V36.6908C78.8057 34.508 77.6819 33.4136 75.4285 33.4136C74.3224 33.4136 73.4869 33.7019 72.9162 34.2726C72.3455 34.8433 72.0572 35.6494 72.0572 36.6908ZM83.9068 43.1511C84.4893 43.6041 85.4013 43.9924 86.631 44.3219C87.8666 44.6455 89.0315 44.8103 90.1376 44.8103C90.9613 44.8103 91.6262 44.6573 92.1322 44.3572C92.6382 44.0571 92.8971 43.5982 92.8971 42.9922C92.8971 42.6451 92.8029 42.3509 92.6205 42.0979C92.4381 41.8508 92.1499 41.639 91.7615 41.4625C91.3732 41.2918 90.9967 41.1565 90.6436 41.0565C90.2847 40.9565 89.8023 40.8329 89.1845 40.6858C88.5667 40.5328 88.0842 40.4034 87.743 40.2975C84.7776 39.4326 83.295 37.7322 83.295 35.2022C83.3185 33.6666 83.9422 32.4605 85.1777 31.5838C86.4133 30.7071 87.9901 30.2717 89.9141 30.2717C92.5735 30.2717 94.7622 30.8777 96.4685 32.0898L95.1682 34.8786C93.8267 33.8608 92.1616 33.3548 90.1729 33.3548C89.3316 33.3548 88.655 33.5077 88.1431 33.8078C87.6371 34.1079 87.3782 34.5433 87.3782 35.1081C87.3782 35.3023 87.4135 35.4788 87.49 35.6435C87.5665 35.8083 87.6959 35.9495 87.8783 36.0789C88.0607 36.2083 88.2313 36.3142 88.3784 36.4025C88.5314 36.4908 88.7726 36.579 89.108 36.679C89.4434 36.7791 89.7022 36.8497 89.8846 36.9085C90.067 36.9615 90.3848 37.0379 90.8437 37.138C91.2967 37.238 91.6144 37.3086 91.7851 37.3498C93.3619 37.7616 94.6269 38.3618 95.5683 39.1502C96.5096 39.9386 96.9803 41.1565 96.9803 42.798C96.9391 44.3984 96.2978 45.6457 95.0681 46.5459C93.8326 47.4461 92.1675 47.8933 90.0729 47.8933C86.8722 47.8933 84.3834 47.2461 82.6066 45.9458L83.9068 43.1569V43.1511Z" fill="black"/>
<path fill-rule="evenodd" clip-rule="evenodd" d="M80.4902 12.5736H96.9998V6.24278L89.2569 0.894531L80.4902 6.60756V12.5736Z" fill="#F7BD01"/>
<path fill-rule="evenodd" clip-rule="evenodd" d="M88.5332 14.6738C92.0987 14.6738 95.2229 16.5331 96.9998 19.3396V25.0173H80.4961V18.7218C82.32 16.2683 85.2442 14.6797 88.5391 14.6797L88.5332 14.6738Z" fill="#F7BD01"/>
</g>
<defs>
<clipPath id="clip0_2031_311">
<rect width="97" height="47.893" fill="white"/>
</clipPath>
</defs>
</svg>
